<svg width="18" height="18" viewBox="0 0 18 18" fill="none" xmlns="http://www.w3.org/2000/svg">
<g clip-path="url(#clip0_201_1012)">
<path d="M8.41699 8.99935C8.41699 9.15406 8.47845 9.30243 8.58785 9.41183C8.69724 9.52122 8.84562 9.58268 9.00033 9.58268C9.15504 9.58268 9.30341 9.52122 9.4128 9.41183C9.5222 9.30243 9.58366 9.15406 9.58366 8.99935C9.58366 8.84464 9.5222 8.69627 9.4128 8.58687C9.30341 8.47747 9.15504 8.41602 9.00033 8.41602C8.84562 8.41602 8.69724 8.47747 8.58785 8.58687C8.47845 8.69627 8.41699 8.84464 8.41699 8.99935Z" stroke="#6B7280" stroke-linecap="round" stroke-linejoin="round"/>
<path d="M8.41699 13.0833C8.41699 13.238 8.47845 13.3864 8.58785 13.4958C8.69724 13.6052 8.84562 13.6667 9.00033 13.6667C9.15504 13.6667 9.30341 13.6052 9.4128 13.4958C9.5222 13.3864 9.58366 13.238 9.58366 13.0833C9.58366 12.9286 9.5222 12.7803 9.4128 12.6709C9.30341 12.5615 9.15504 12.5 9.00033 12.5C8.84562 12.5 8.69724 12.5615 8.58785 12.6709C8.47845 12.7803 8.41699 12.9286 8.41699 13.0833Z" stroke="#6B7280" stroke-linecap="round" stroke-linejoin="round"/>
<path d="M8.41699 4.91732C8.41699 5.07203 8.47845 5.2204 8.58785 5.3298C8.69724 5.43919 8.84562 5.50065 9.00033 5.50065C9.15504 5.50065 9.30341 5.43919 9.4128 5.3298C9.5222 5.2204 9.58366 5.07203 9.58366 4.91732C9.58366 4.76261 9.5222 4.61424 9.4128 4.50484C9.30341 4.39544 9.15504 4.33398 9.00033 4.33398C8.84562 4.33398 8.69724 4.39544 8.58785 4.50484C8.47845 4.61424 8.41699 4.76261 8.41699 4.91732Z" stroke="#6B7280" stroke-linecap="round" stroke-linejoin="round"/>
</g>
<defs>
<clipPath id="clip0_201_1012">
<rect width="14" height="14" fill="white" transform="translate(2 2)"/>
</clipPath>
</defs>
</svg>
