<svg width="30" height="30" viewBox="0 0 30 30" fill="none" xmlns="http://www.w3.org/2000/svg">
<g clip-path="url(#clip0_118_393)">
<path d="M12.333 15.0007C12.333 15.7079 12.614 16.3862 13.1141 16.8863C13.6142 17.3864 14.2924 17.6673 14.9997 17.6673C15.7069 17.6673 16.3852 17.3864 16.8853 16.8863C17.3854 16.3862 17.6663 15.7079 17.6663 15.0007C17.6663 14.2934 17.3854 13.6151 16.8853 13.115C16.3852 12.6149 15.7069 12.334 14.9997 12.334C14.2924 12.334 13.6142 12.6149 13.1141 13.115C12.614 13.6151 12.333 14.2934 12.333 15.0007Z" stroke="#111827" stroke-linecap="round" stroke-linejoin="round"/>
<path d="M9 15H9.66667M15 9V9.66667M20.3333 15H21M15 20.3333V21M10.7333 10.7333L11.2 11.2M19.2667 10.7333L18.8 11.2M18.8 18.8L19.2667 19.2667M11.2 18.8L10.7333 19.2667" stroke="#111827" stroke-linecap="round" stroke-linejoin="round"/>
</g>
<defs>
<clipPath id="clip0_118_393">
<rect width="16" height="16" fill="white" transform="translate(7 7)"/>
</clipPath>
</defs>
</svg>
