<svg width="16" height="16" viewBox="0 0 16 16" fill="none" xmlns="http://www.w3.org/2000/svg">
<g clip-path="url(#clip0_201_994)">
<path d="M7.99996 1.99994C8.93918 1.99973 9.86534 2.22002 10.7039 2.64308C11.5424 3.06614 12.27 3.68015 12.8279 4.4357C13.3858 5.19125 13.7586 6.06723 13.9162 6.99313C14.0738 7.91904 14.0118 8.86902 13.7353 9.76661C13.986 10.322 14.0617 10.9406 13.9522 11.5401C13.8427 12.1395 13.5532 12.6914 13.1223 13.1223C12.6914 13.5532 12.1395 13.8427 11.5401 13.9522C10.9406 14.0617 10.322 13.986 9.76662 13.7353C8.72381 14.0569 7.61301 14.0881 6.5538 13.8254C5.49458 13.5628 4.52707 13.0162 3.75541 12.2445C2.98374 11.4728 2.43715 10.5053 2.17446 9.4461C1.91178 8.38689 1.94295 7.27609 2.26462 6.23327C2.01367 5.67784 1.93785 5.05915 2.04725 4.45956C2.15665 3.85997 2.44609 3.30792 2.87703 2.87691C3.30797 2.4459 3.85997 2.15637 4.45954 2.04686C5.05911 1.93736 5.67782 2.01308 6.23329 2.26394C6.80568 2.08815 7.40119 1.99916 7.99996 1.99994Z" stroke="#6B7280" stroke-linecap="round" stroke-linejoin="round"/>
<path d="M5.33301 9.66602C5.66634 10.9993 6.90501 11.3327 7.99967 11.3327C9.93634 11.3327 10.6663 10.5413 10.6663 9.66602C10.6663 8.66402 9.38167 7.99935 7.99967 7.99935C6.61767 7.99935 5.33301 7.33268 5.33301 6.33268C5.33301 5.45735 6.06301 4.66602 7.99967 4.66602C9.09434 4.66602 10.333 4.99935 10.6663 6.33268" stroke="#6B7280" stroke-linecap="round" stroke-linejoin="round"/>
</g>
<defs>
<clipPath id="clip0_201_994">
<rect width="16" height="16" fill="white"/>
</clipPath>
</defs>
</svg>
