<svg width="16" height="16" viewBox="0 0 16 16" fill="none" xmlns="http://www.w3.org/2000/svg">
<g clip-path="url(#clip0_8_2146)">
<path d="M2 13.3333H14V8C14 7.46957 13.7893 6.96086 13.4142 6.58579C13.0391 6.21071 12.5304 6 12 6H4C3.46957 6 2.96086 6.21071 2.58579 6.58579C2.21071 6.96086 2 7.46957 2 8V13.3333Z" stroke="#6B7280" stroke-linecap="round" stroke-linejoin="round"/>
<path d="M2 9.86837C2.208 9.95837 2.436 10.0044 2.66667 9.9997C2.92633 10.0051 3.18342 9.94728 3.41572 9.83113C3.64802 9.71498 3.84855 9.54403 4 9.33303C4.15145 9.12204 4.35198 8.95108 4.58428 8.83493C4.81658 8.71878 5.07367 8.66093 5.33333 8.66637C5.593 8.66093 5.85008 8.71878 6.08238 8.83493C6.31469 8.95108 6.51522 9.12204 6.66667 9.33303C6.81811 9.54403 7.01865 9.71498 7.25095 9.83113C7.48325 9.94728 7.74034 10.0051 8 9.9997C8.25966 10.0051 8.51675 9.94728 8.74905 9.83113C8.98135 9.71498 9.18189 9.54403 9.33333 9.33303C9.48478 9.12204 9.68531 8.95108 9.91762 8.83493C10.1499 8.71878 10.407 8.66093 10.6667 8.66637C10.9263 8.66093 11.1834 8.71878 11.4157 8.83493C11.648 8.95108 11.8486 9.12204 12 9.33303C12.1514 9.54403 12.352 9.71498 12.5843 9.83113C12.8166 9.94728 13.0737 10.0051 13.3333 9.9997C13.5667 10.0044 13.7947 9.95837 14 9.86837" stroke="#6B7280" stroke-linecap="round" stroke-linejoin="round"/>
<path d="M7.99992 2.66602L8.97659 3.75802C9.15087 3.94537 9.26756 4.17892 9.31272 4.43078C9.35789 4.68265 9.32963 4.94219 9.23132 5.17843C9.133 5.41467 8.96879 5.61763 8.75827 5.76309C8.54775 5.90854 8.29983 5.99035 8.04408 5.99875C7.78834 6.00715 7.53558 5.94178 7.31598 5.81045C7.09637 5.67911 6.91919 5.48736 6.80559 5.25808C6.69199 5.0288 6.64677 4.77167 6.67532 4.51738C6.70386 4.2631 6.80498 4.0224 6.96659 3.82402L7.99992 2.66602Z" stroke="#6B7280" stroke-linecap="round" stroke-linejoin="round"/>
</g>
<defs>
<clipPath id="clip0_8_2146">
<rect width="16" height="16" fill="white"/>
</clipPath>
</defs>
</svg>
