<svg width="14" height="14" viewBox="0 0 14 14" fill="none" xmlns="http://www.w3.org/2000/svg">
<g clip-path="url(#clip0_80_540)">
<path d="M2.33301 4.08268C2.33301 3.77326 2.45592 3.47652 2.67472 3.25772C2.89351 3.03893 3.19026 2.91602 3.49967 2.91602H10.4997C10.8091 2.91602 11.1058 3.03893 11.3246 3.25772C11.5434 3.47652 11.6663 3.77326 11.6663 4.08268V11.0827C11.6663 11.3921 11.5434 11.6888 11.3246 11.9076C11.1058 12.1264 10.8091 12.2493 10.4997 12.2493H3.49967C3.19026 12.2493 2.89351 12.1264 2.67472 11.9076C2.45592 11.6888 2.33301 11.3921 2.33301 11.0827V4.08268Z" stroke="#111827" stroke-linecap="round" stroke-linejoin="round"/>
<path d="M9.33301 1.75V4.08333" stroke="#111827" stroke-linecap="round" stroke-linejoin="round"/>
<path d="M4.66699 1.75V4.08333" stroke="#111827" stroke-linecap="round" stroke-linejoin="round"/>
<path d="M2.33301 6.41602H11.6663" stroke="#111827" stroke-linecap="round" stroke-linejoin="round"/>
<path d="M6.41699 8.75H7.00033" stroke="#111827" stroke-linecap="round" stroke-linejoin="round"/>
<path d="M7 8.75V10.5" stroke="#111827" stroke-linecap="round" stroke-linejoin="round"/>
</g>
<defs>
<clipPath id="clip0_80_540">
<rect width="14" height="14" fill="white"/>
</clipPath>
</defs>
</svg>
