<svg width="14" height="14" viewBox="0 0 14 14" fill="none" xmlns="http://www.w3.org/2000/svg">
<g clip-path="url(#clip0_267_876)">
<path d="M2.3335 4.08268C2.3335 3.77326 2.45641 3.47652 2.6752 3.25772C2.894 3.03893 3.19074 2.91602 3.50016 2.91602H10.5002C10.8096 2.91602 11.1063 3.03893 11.3251 3.25772C11.5439 3.47652 11.6668 3.77326 11.6668 4.08268V11.0827C11.6668 11.3921 11.5439 11.6888 11.3251 11.9076C11.1063 12.1264 10.8096 12.2493 10.5002 12.2493H3.50016C3.19074 12.2493 2.894 12.1264 2.6752 11.9076C2.45641 11.6888 2.3335 11.3921 2.3335 11.0827V4.08268Z" stroke="#AB47BC" stroke-linecap="round" stroke-linejoin="round"/>
<path d="M9.3335 1.75V4.08333" stroke="#AB47BC" stroke-linecap="round" stroke-linejoin="round"/>
<path d="M4.6665 1.75V4.08333" stroke="#AB47BC" stroke-linecap="round" stroke-linejoin="round"/>
<path d="M2.3335 6.41602H11.6668" stroke="#AB47BC" stroke-linecap="round" stroke-linejoin="round"/>
<path d="M6.4165 8.75H6.99984" stroke="#AB47BC" stroke-linecap="round" stroke-linejoin="round"/>
<path d="M7 8.75V10.5" stroke="#AB47BC" stroke-linecap="round" stroke-linejoin="round"/>
</g>
<defs>
<clipPath id="clip0_267_876">
<rect width="14" height="14" fill="white"/>
</clipPath>
</defs>
</svg>
