<svg width="30" height="30" viewBox="0 0 30 30" fill="none" xmlns="http://www.w3.org/2000/svg">
<g clip-path="url(#clip0_9_7626)">
<path d="M18.8676 18.5272C18.8676 18.5272 18.919 18.4906 19.001 18.4279C20.2296 17.4779 21.001 16.1012 21.001 14.5686C21.001 11.7112 18.3143 9.39258 15.001 9.39258C11.6876 9.39258 9.00098 11.7112 9.00098 14.5686C9.00098 17.4272 11.6876 19.6659 15.001 19.6659C15.2836 19.6659 15.7476 19.6472 16.393 19.6099C17.2343 20.1566 18.4623 20.6052 19.537 20.6052C19.8696 20.6052 20.0263 20.3319 19.813 20.0532C19.489 19.6559 19.0423 19.0192 18.869 18.5266L18.8676 18.5272Z" stroke="#6B7280" stroke-linecap="round" stroke-linejoin="round"/>
<path d="M12 16C13.6667 17.6667 16.3333 17.6667 18 16" stroke="#6B7280" stroke-linecap="round" stroke-linejoin="round"/>
</g>
<rect x="15" y="2" width="10" height="10" rx="5" fill="#1B84FF"/>
<path d="M20.0152 10.4898C19.5352 10.4898 19.1152 10.3998 18.7552 10.2198C18.3952 10.0398 18.1152 9.7831 17.9152 9.44977C17.7152 9.10977 17.6152 8.70643 17.6152 8.23977H18.5052C18.5052 8.5531 18.5719 8.8231 18.7052 9.04977C18.8386 9.27643 19.0186 9.44977 19.2452 9.56977C19.4786 9.68977 19.7352 9.74977 20.0152 9.74977C20.3019 9.74977 20.5552 9.6931 20.7752 9.57977C20.9952 9.45977 21.1652 9.27977 21.2852 9.03977C21.4119 8.79977 21.4752 8.49643 21.4752 8.12977C21.4752 7.79643 21.4186 7.5231 21.3052 7.30977C21.1919 7.08977 21.0286 6.92643 20.8152 6.81977C20.6086 6.7131 20.3686 6.65977 20.0952 6.65977C19.8952 6.65977 19.7052 6.6931 19.5252 6.75977C19.3452 6.81977 19.1819 6.90643 19.0352 7.01977C18.8952 7.1331 18.7786 7.2731 18.6852 7.43977L17.8552 7.30977L18.1452 3.50977H22.0352V4.32977H18.9152L18.7552 6.46977C18.8686 6.36977 18.9952 6.27977 19.1352 6.19977C19.2819 6.1131 19.4486 6.04643 19.6352 5.99977C19.8219 5.94643 20.0352 5.91977 20.2752 5.91977C20.6686 5.91977 21.0252 5.99643 21.3452 6.14977C21.6652 6.3031 21.9186 6.53977 22.1052 6.85977C22.2919 7.17977 22.3852 7.5931 22.3852 8.09977C22.3852 8.59977 22.2886 9.02977 22.0952 9.38977C21.9086 9.74977 21.6386 10.0231 21.2852 10.2098C20.9319 10.3964 20.5086 10.4898 20.0152 10.4898Z" fill="white"/>
<defs>
<clipPath id="clip0_9_7626">
<rect width="16" height="16" fill="white" transform="translate(7 7)"/>
</clipPath>
</defs>
</svg>
