<svg width="14" height="14" viewBox="0 0 14 14" fill="none" xmlns="http://www.w3.org/2000/svg">
<g clip-path="url(#clip0_41_299)">
<path d="M2.33301 2.91732C2.33301 2.76261 2.39447 2.61424 2.50386 2.50484C2.61326 2.39544 2.76163 2.33398 2.91634 2.33398H5.24967C5.40438 2.33398 5.55276 2.39544 5.66215 2.50484C5.77155 2.61424 5.83301 2.76261 5.83301 2.91732V5.25065C5.83301 5.40536 5.77155 5.55373 5.66215 5.66313C5.55276 5.77253 5.40438 5.83398 5.24967 5.83398H2.91634C2.76163 5.83398 2.61326 5.77253 2.50386 5.66313C2.39447 5.55373 2.33301 5.40536 2.33301 5.25065V2.91732Z" stroke="#6B7280" stroke-linecap="round" stroke-linejoin="round"/>
<path d="M8.16699 2.91732C8.16699 2.76261 8.22845 2.61424 8.33785 2.50484C8.44724 2.39544 8.59562 2.33398 8.75033 2.33398H11.0837C11.2384 2.33398 11.3867 2.39544 11.4961 2.50484C11.6055 2.61424 11.667 2.76261 11.667 2.91732V5.25065C11.667 5.40536 11.6055 5.55373 11.4961 5.66313C11.3867 5.77253 11.2384 5.83398 11.0837 5.83398H8.75033C8.59562 5.83398 8.44724 5.77253 8.33785 5.66313C8.22845 5.55373 8.16699 5.40536 8.16699 5.25065V2.91732Z" stroke="#6B7280" stroke-linecap="round" stroke-linejoin="round"/>
<path d="M2.33301 8.74935C2.33301 8.59464 2.39447 8.44627 2.50386 8.33687C2.61326 8.22747 2.76163 8.16602 2.91634 8.16602H5.24967C5.40438 8.16602 5.55276 8.22747 5.66215 8.33687C5.77155 8.44627 5.83301 8.59464 5.83301 8.74935V11.0827C5.83301 11.2374 5.77155 11.3858 5.66215 11.4952C5.55276 11.6046 5.40438 11.666 5.24967 11.666H2.91634C2.76163 11.666 2.61326 11.6046 2.50386 11.4952C2.39447 11.3858 2.33301 11.2374 2.33301 11.0827V8.74935Z" stroke="#6B7280" stroke-linecap="round" stroke-linejoin="round"/>
<path d="M8.16699 9.91602H11.667M9.91699 8.16602V11.666" stroke="#6B7280" stroke-linecap="round" stroke-linejoin="round"/>
</g>
<defs>
<clipPath id="clip0_41_299">
<rect width="14" height="14" fill="white"/>
</clipPath>
</defs>
</svg>
