<svg width="14" height="14" viewBox="0 0 14 14" fill="none" xmlns="http://www.w3.org/2000/svg">
<g clip-path="url(#clip0_8_2138)">
<path d="M4.6665 5.83268C4.6665 5.52326 4.78942 5.22652 5.00821 5.00772C5.22701 4.78893 5.52375 4.66602 5.83317 4.66602H10.4998C10.8093 4.66602 11.106 4.78893 11.3248 5.00772C11.5436 5.22652 11.6665 5.52326 11.6665 5.83268V10.4993C11.6665 10.8088 11.5436 11.1055 11.3248 11.3243C11.106 11.5431 10.8093 11.666 10.4998 11.666H5.83317C5.52375 11.666 5.22701 11.5431 5.00821 11.3243C4.78942 11.1055 4.6665 10.8088 4.6665 10.4993V5.83268Z" stroke="#6B7280" stroke-linecap="round" stroke-linejoin="round"/>
<path d="M9.3335 4.66732V3.50065C9.3335 3.19123 9.21058 2.89449 8.99179 2.67569C8.77299 2.4569 8.47625 2.33398 8.16683 2.33398H3.50016C3.19074 2.33398 2.894 2.4569 2.6752 2.67569C2.45641 2.89449 2.3335 3.19123 2.3335 3.50065V8.16732C2.3335 8.47674 2.45641 8.77348 2.6752 8.99228C2.894 9.21107 3.19074 9.33398 3.50016 9.33398H4.66683" stroke="#6B7280" stroke-linecap="round" stroke-linejoin="round"/>
</g>
<defs>
<clipPath id="clip0_8_2138">
<rect width="14" height="14" fill="white"/>
</clipPath>
</defs>
</svg>
