<svg width="14" height="14" viewBox="0 0 14 14" fill="none" xmlns="http://www.w3.org/2000/svg">
<g clip-path="url(#clip0_9_5221)">
<path d="M11.0831 5.08135L7.97217 2.66168C7.69916 2.4493 7.36314 2.33398 7.01725 2.33398C6.67136 2.33398 6.33534 2.4493 6.06234 2.66168L2.95084 5.08135C2.76384 5.22677 2.61256 5.41299 2.50853 5.6258C2.4045 5.83862 2.35047 6.07239 2.35059 6.30927V10.5093C2.35059 10.8187 2.4735 11.1154 2.69229 11.3342C2.91109 11.553 3.20783 11.6759 3.51725 11.6759H10.5173C10.8267 11.6759 11.1234 11.553 11.3422 11.3342C11.561 11.1154 11.6839 10.8187 11.6839 10.5093V6.30927C11.6839 5.82918 11.4623 5.37593 11.0831 5.08135Z" stroke="#6B7280" stroke-linecap="round" stroke-linejoin="round"/>
<path d="M9.33366 8.75C8.04449 9.52758 5.95499 9.52758 4.66699 8.75" stroke="#6B7280" stroke-linecap="round" stroke-linejoin="round"/>
</g>
<defs>
<clipPath id="clip0_9_5221">
<rect width="14" height="14" fill="white"/>
</clipPath>
</defs>
</svg>
