<svg width="14" height="14" viewBox="0 0 14 14" fill="none" xmlns="http://www.w3.org/2000/svg">
<g clip-path="url(#clip0_8_2112)">
<path d="M7.00591 1.17383C7.45962 1.17386 7.89779 1.33913 8.23849 1.63874L8.32833 1.72333L8.73549 2.13049C8.84724 2.24151 8.99316 2.31159 9.14966 2.32941L9.22841 2.33408H9.81174C10.2885 2.33405 10.7471 2.51641 11.0937 2.84376C11.4402 3.17111 11.6484 3.61864 11.6755 4.09458L11.6784 4.20074V4.78408C11.6784 4.94158 11.7321 5.09499 11.8289 5.21749L11.8814 5.27583L12.288 5.68299C12.625 6.01809 12.8215 6.46911 12.8374 6.94408C12.8534 7.41906 12.6875 7.88224 12.3737 8.23916L12.2892 8.32899L11.882 8.73616C11.771 8.8479 11.7009 8.99382 11.6831 9.15033L11.6784 9.22908V9.81241C11.6784 10.2891 11.4961 10.7478 11.1687 11.0943C10.8414 11.4409 10.3938 11.649 9.91791 11.6762L9.81174 11.6791H9.22841C9.07113 11.6791 8.91846 11.7321 8.79499 11.8296L8.73666 11.8821L8.32949 12.2887C7.9944 12.6257 7.54338 12.8222 7.0684 12.8381C6.59343 12.854 6.13025 12.6882 5.77333 12.3744L5.68349 12.2898L5.27633 11.8827C5.16458 11.7716 5.01866 11.7016 4.86216 11.6837L4.78341 11.6791H4.20008C3.72337 11.6791 3.26471 11.4967 2.91816 11.1694C2.57162 10.842 2.36344 10.3945 2.33633 9.91858L2.33341 9.81241V9.22908C2.33336 9.0718 2.28034 8.91912 2.18291 8.79566L2.13041 8.73733L1.72383 8.33016C1.38682 7.99507 1.19032 7.54405 1.17439 7.06907C1.15846 6.59409 1.32429 6.13092 1.63808 5.774L1.72266 5.68416L2.12983 5.27699C2.24084 5.16525 2.31093 5.01933 2.32874 4.86283L2.33341 4.78408V4.20074L2.33633 4.09458C2.36237 3.63692 2.55591 3.20485 2.88005 2.88071C3.20418 2.55658 3.63625 2.36304 4.09391 2.33699L4.20008 2.33408H4.78341C4.94069 2.33403 5.09336 2.28101 5.21683 2.18358L5.27516 2.13108L5.68233 1.72449C5.85577 1.55001 6.062 1.41154 6.28915 1.31704C6.5163 1.22253 6.75989 1.17386 7.00591 1.17383ZM9.16249 5.42166C9.0531 5.3123 8.90476 5.25087 8.75008 5.25087C8.5954 5.25087 8.44705 5.3123 8.33766 5.42166L6.41674 7.34199L5.66249 6.58833L5.60766 6.53991C5.49042 6.44925 5.34306 6.40662 5.19552 6.42068C5.04798 6.43473 4.91132 6.50442 4.81331 6.61558C4.71529 6.72675 4.66325 6.87105 4.66778 7.01919C4.6723 7.16732 4.73304 7.30819 4.83766 7.41316L6.00433 8.57983L6.05916 8.62824C6.1714 8.71531 6.31154 8.75843 6.45331 8.74951C6.59507 8.7406 6.72871 8.68026 6.82916 8.57983L9.16249 6.24649L9.21091 6.19166C9.29797 6.07943 9.34109 5.93928 9.33218 5.79751C9.32326 5.65575 9.26293 5.52211 9.16249 5.42166Z" fill="#03C95A"/>
</g>
<defs>
<clipPath id="clip0_8_2112">
<rect width="14" height="14" fill="white"/>
</clipPath>
</defs>
</svg>
