<svg width="16" height="16" viewBox="0 0 16 16" fill="none" xmlns="http://www.w3.org/2000/svg">
<g clip-path="url(#clip0_8_2165)">
<path d="M1.3335 4.66732C1.3335 4.3137 1.47397 3.97456 1.72402 3.72451C1.97407 3.47446 2.31321 3.33398 2.66683 3.33398H13.3335C13.6871 3.33398 14.0263 3.47446 14.2763 3.72451C14.5264 3.97456 14.6668 4.3137 14.6668 4.66732V11.334C14.6668 11.6876 14.5264 12.0267 14.2763 12.2768C14.0263 12.5268 13.6871 12.6673 13.3335 12.6673H2.66683C2.31321 12.6673 1.97407 12.5268 1.72402 12.2768C1.47397 12.0267 1.3335 11.6876 1.3335 11.334V4.66732Z" stroke="#6B7280" stroke-linecap="round" stroke-linejoin="round"/>
<path d="M6 8C6 8.53043 6.21071 9.03914 6.58579 9.41421C6.96086 9.78929 7.46957 10 8 10C8.53043 10 9.03914 9.78929 9.41421 9.41421C9.78929 9.03914 10 8.53043 10 8C10 7.46957 9.78929 6.96086 9.41421 6.58579C9.03914 6.21071 8.53043 6 8 6C7.46957 6 6.96086 6.21071 6.58579 6.58579C6.21071 6.96086 6 7.46957 6 8Z" stroke="#6B7280" stroke-linecap="round" stroke-linejoin="round"/>
<path d="M6.00016 8H1.3335" stroke="#6B7280" stroke-linecap="round" stroke-linejoin="round"/>
<path d="M10 8H14.6667" stroke="#6B7280" stroke-linecap="round" stroke-linejoin="round"/>
</g>
<defs>
<clipPath id="clip0_8_2165">
<rect width="16" height="16" fill="white"/>
</clipPath>
</defs>
</svg>
