<svg width="14" height="14" viewBox="0 0 14 14" fill="none" xmlns="http://www.w3.org/2000/svg">
<g clip-path="url(#clip0_8_2124)">
<path d="M4.0835 4.08398H3.50016C3.19074 4.08398 2.894 4.2069 2.6752 4.42569C2.45641 4.64449 2.3335 4.94123 2.3335 5.25065V10.5007C2.3335 10.8101 2.45641 11.1068 2.6752 11.3256C2.894 11.5444 3.19074 11.6673 3.50016 11.6673H8.75016C9.05958 11.6673 9.35633 11.5444 9.57512 11.3256C9.79391 11.1068 9.91683 10.8101 9.91683 10.5007V9.91732" stroke="#6B7280" stroke-linecap="round" stroke-linejoin="round"/>
<path d="M11.8913 3.84131C12.121 3.61157 12.2501 3.29997 12.2501 2.97506C12.2501 2.65016 12.121 2.33856 11.8913 2.10881C11.6615 1.87907 11.3499 1.75 11.025 1.75C10.7001 1.75 10.3885 1.87907 10.1588 2.10881L5.25 7.00006V8.75006H7L11.8913 3.84131Z" stroke="#6B7280" stroke-linecap="round" stroke-linejoin="round"/>
<path d="M9.3335 2.91602L11.0835 4.66602" stroke="#6B7280" stroke-linecap="round" stroke-linejoin="round"/>
</g>
<defs>
<clipPath id="clip0_8_2124">
<rect width="14" height="14" fill="white"/>
</clipPath>
</defs>
</svg>
