<svg width="14" height="14" viewBox="0 0 14 14" fill="none" xmlns="http://www.w3.org/2000/svg">
<g clip-path="url(#clip0_82_321)">
<path d="M6.17458 6.17578C5.95582 6.39462 5.83295 6.69139 5.83301 7.00082C5.83306 7.31025 5.95603 7.60698 6.17487 7.82574C6.39371 8.0445 6.69048 8.16737 6.99991 8.16731C7.30934 8.16726 7.60607 8.04428 7.82483 7.82545" stroke="#374151" stroke-linecap="round" stroke-linejoin="round"/>
<path d="M9.73058 9.72593C8.91231 10.2379 7.96522 10.5064 7 10.5C4.9 10.5 3.15 9.33335 1.75 7.00002C2.492 5.76335 3.332 4.85452 4.27 4.27352M5.93833 3.60502C6.28777 3.53428 6.64347 3.4991 7 3.50002C9.1 3.50002 10.85 4.66668 12.25 7.00002C11.8615 7.64752 11.4456 8.20577 11.0028 8.67418" stroke="#374151" stroke-linecap="round" stroke-linejoin="round"/>
<path d="M1.75 1.75L12.25 12.25" stroke="#111827" stroke-linecap="round" stroke-linejoin="round"/>
</g>
<defs>
<clipPath id="clip0_82_321">
<rect width="14" height="14" fill="white"/>
</clipPath>
</defs>
</svg>
