<svg width="14" height="14" viewBox="0 0 14 14" fill="none" xmlns="http://www.w3.org/2000/svg">
<g clip-path="url(#clip0_8_2261)">
<path d="M8.75 1.75V4.08333C8.75 4.23804 8.81146 4.38642 8.92085 4.49581C9.03025 4.60521 9.17862 4.66667 9.33333 4.66667H11.6667" stroke="#111827" stroke-linecap="round" stroke-linejoin="round"/>
<path d="M10.5 9.91667H6.41667C6.10725 9.91667 5.8105 9.79375 5.59171 9.57496C5.37292 9.35617 5.25 9.05942 5.25 8.75V2.91667C5.25 2.60725 5.37292 2.3105 5.59171 2.09171C5.8105 1.87292 6.10725 1.75 6.41667 1.75H8.75L11.6667 4.66667V8.75C11.6667 9.05942 11.5437 9.35617 11.325 9.57496C11.1062 9.79375 10.8094 9.91667 10.5 9.91667Z" stroke="#111827" stroke-linecap="round" stroke-linejoin="round"/>
<path d="M9.33317 9.91732V11.084C9.33317 11.3934 9.21025 11.6902 8.99146 11.9089C8.77267 12.1277 8.47592 12.2507 8.1665 12.2507H4.08317C3.77375 12.2507 3.47701 12.1277 3.25821 11.9089C3.03942 11.6902 2.9165 11.3934 2.9165 11.084V5.25065C2.9165 4.94123 3.03942 4.64449 3.25821 4.42569C3.47701 4.2069 3.77375 4.08398 4.08317 4.08398H5.24984" stroke="#111827" stroke-linecap="round" stroke-linejoin="round"/>
</g>
<defs>
<clipPath id="clip0_8_2261">
<rect width="14" height="14" fill="white"/>
</clipPath>
</defs>
</svg>
