<svg width="16" height="16" viewBox="0 0 16 16" fill="none" xmlns="http://www.w3.org/2000/svg">
<g clip-path="url(#clip0_8_2176)">
<path d="M5.3335 6.66667C5.3335 7.37391 5.61445 8.05219 6.11454 8.55229C6.61464 9.05238 7.29292 9.33333 8.00016 9.33333C8.70741 9.33333 9.38568 9.05238 9.88578 8.55229C10.3859 8.05219 10.6668 7.37391 10.6668 6.66667C10.6668 5.95942 10.3859 5.28115 9.88578 4.78105C9.38568 4.28095 8.70741 4 8.00016 4C7.29292 4 6.61464 4.28095 6.11454 4.78105C5.61445 5.28115 5.3335 5.95942 5.3335 6.66667Z" stroke="#6B7280" stroke-linecap="round" stroke-linejoin="round"/>
<path d="M4.5 10.6667C5.06262 11.1554 5.72125 11.521 6.43356 11.74C7.14588 11.959 7.89613 12.0266 8.63613 11.9384C9.37612 11.8503 10.0895 11.6083 10.7304 11.228C11.3713 10.8478 11.9256 10.3376 12.3576 9.73044C12.7897 9.12324 13.09 8.43237 13.2391 7.70223C13.3883 6.97209 13.3831 6.21881 13.2239 5.4908C13.0646 4.76278 12.7548 4.07613 12.3144 3.47495C11.874 2.87378 11.3128 2.37137 10.6667 2" stroke="#6B7280" stroke-linecap="round" stroke-linejoin="round"/>
<path d="M8 12V14.6667" stroke="#6B7280" stroke-linecap="round" stroke-linejoin="round"/>
<path d="M5.3335 14.666H10.6668" stroke="#6B7280" stroke-linecap="round" stroke-linejoin="round"/>
</g>
<defs>
<clipPath id="clip0_8_2176">
<rect width="16" height="16" fill="white"/>
</clipPath>
</defs>
</svg>
