<svg width="32" height="32" viewBox="0 0 32 32" fill="none" xmlns="http://www.w3.org/2000/svg">
<rect width="32" height="32" rx="16" fill="#212529"/>
<g clip-path="url(#clip0_9_5436)">
<path d="M13.333 12.6667C13.333 13.3739 13.614 14.0522 14.1141 14.5523C14.6142 15.0524 15.2924 15.3333 15.9997 15.3333C16.7069 15.3333 17.3852 15.0524 17.8853 14.5523C18.3854 14.0522 18.6663 13.3739 18.6663 12.6667C18.6663 11.9594 18.3854 11.2811 17.8853 10.781C17.3852 10.281 16.7069 10 15.9997 10C15.2924 10 14.6142 10.281 14.1141 10.781C13.614 11.2811 13.333 11.9594 13.333 12.6667Z" stroke="white" stroke-linecap="round" stroke-linejoin="round"/>
<path d="M12 22V20.6667C12 19.9594 12.281 19.2811 12.781 18.781C13.2811 18.281 13.9594 18 14.6667 18H15" stroke="white" stroke-linecap="round" stroke-linejoin="round"/>
<path d="M19.8668 21.879L18.4188 22.6376C18.3759 22.66 18.3275 22.67 18.2792 22.6665C18.2309 22.6629 18.1845 22.6461 18.1452 22.6177C18.1059 22.5894 18.0753 22.5506 18.0568 22.5059C18.0382 22.4611 18.0325 22.4121 18.0402 22.3643L18.3168 20.757L17.1455 19.619C17.1105 19.5852 17.0858 19.5422 17.0741 19.495C17.0623 19.4478 17.0641 19.3983 17.0792 19.3521C17.0943 19.3058 17.1221 19.2648 17.1594 19.2336C17.1967 19.2024 17.242 19.1823 17.2902 19.1756L18.9088 18.941L19.6328 17.479C19.6545 17.4354 19.6879 17.3988 19.7292 17.3732C19.7705 17.3476 19.8182 17.334 19.8668 17.334C19.9155 17.334 19.9631 17.3476 20.0045 17.3732C20.0458 17.3988 20.0792 17.4354 20.1008 17.479L20.8248 18.941L22.4435 19.1756C22.4915 19.1825 22.5367 19.2027 22.5738 19.234C22.6109 19.2652 22.6386 19.3062 22.6536 19.3523C22.6687 19.3984 22.6705 19.4479 22.659 19.495C22.6474 19.5421 22.6229 19.5851 22.5882 19.619L21.4168 20.757L21.6928 22.3636C21.7011 22.4115 21.6958 22.4608 21.6775 22.5059C21.6592 22.5509 21.6286 22.5899 21.5892 22.6184C21.5499 22.647 21.5033 22.6639 21.4548 22.6673C21.4063 22.6707 21.3578 22.6604 21.3148 22.6376L19.8668 21.879Z" stroke="white" stroke-linecap="round" stroke-linejoin="round"/>
</g>
<defs>
<clipPath id="clip0_9_5436">
<rect width="16" height="16" fill="white" transform="translate(8 8)"/>
</clipPath>
</defs>
</svg>
