<svg width="32" height="32" viewBox="0 0 32 32" fill="none" xmlns="http://www.w3.org/2000/svg">
<rect width="32" height="32" rx="16" fill="#1B84FF"/>
<g clip-path="url(#clip0_9_5364)">
<path d="M14.667 16.6673C14.667 17.0209 14.8075 17.3601 15.0575 17.6101C15.3076 17.8602 15.6467 18.0007 16.0003 18.0007C16.3539 18.0007 16.6931 17.8602 16.9431 17.6101C17.1932 17.3601 17.3337 17.0209 17.3337 16.6673C17.3337 16.3137 17.1932 15.9746 16.9431 15.7245C16.6931 15.4745 16.3539 15.334 16.0003 15.334C15.6467 15.334 15.3076 15.4745 15.0575 15.7245C14.8075 15.9746 14.667 16.3137 14.667 16.6673Z" stroke="white" stroke-linecap="round" stroke-linejoin="round"/>
<path d="M13.333 22V21.3333C13.333 20.9797 13.4735 20.6406 13.7235 20.3905C13.9736 20.1405 14.3127 20 14.6663 20H17.333C17.6866 20 18.0258 20.1405 18.2758 20.3905C18.5259 20.6406 18.6663 20.9797 18.6663 21.3333V22" stroke="white" stroke-linecap="round" stroke-linejoin="round"/>
<path d="M18 11.3333C18 11.687 18.1405 12.0261 18.3905 12.2761C18.6406 12.5262 18.9797 12.6667 19.3333 12.6667C19.687 12.6667 20.0261 12.5262 20.2761 12.2761C20.5262 12.0261 20.6667 11.687 20.6667 11.3333C20.6667 10.9797 20.5262 10.6406 20.2761 10.3905C20.0261 10.1405 19.687 10 19.3333 10C18.9797 10 18.6406 10.1405 18.3905 10.3905C18.1405 10.6406 18 10.9797 18 11.3333Z" stroke="white" stroke-linecap="round" stroke-linejoin="round"/>
<path d="M19.333 14.666H20.6663C21.02 14.666 21.3591 14.8065 21.6092 15.0565C21.8592 15.3066 21.9997 15.6457 21.9997 15.9993V16.666" stroke="white" stroke-linecap="round" stroke-linejoin="round"/>
<path d="M11.333 11.3333C11.333 11.687 11.4735 12.0261 11.7235 12.2761C11.9736 12.5262 12.3127 12.6667 12.6663 12.6667C13.02 12.6667 13.3591 12.5262 13.6092 12.2761C13.8592 12.0261 13.9997 11.687 13.9997 11.3333C13.9997 10.9797 13.8592 10.6406 13.6092 10.3905C13.3591 10.1405 13.02 10 12.6663 10C12.3127 10 11.9736 10.1405 11.7235 10.3905C11.4735 10.6406 11.333 10.9797 11.333 11.3333Z" stroke="white" stroke-linecap="round" stroke-linejoin="round"/>
<path d="M10 16.666V15.9993C10 15.6457 10.1405 15.3066 10.3905 15.0565C10.6406 14.8065 10.9797 14.666 11.3333 14.666H12.6667" stroke="white" stroke-linecap="round" stroke-linejoin="round"/>
</g>
<defs>
<clipPath id="clip0_9_5364">
<rect width="16" height="16" fill="white" transform="translate(8 8)"/>
</clipPath>
</defs>
</svg>
