<svg width="32" height="32" viewBox="0 0 32 32" fill="none" xmlns="http://www.w3.org/2000/svg">
<rect width="32" height="32" rx="16" fill="#AB47BC"/>
<g clip-path="url(#clip0_9_5394)">
<path d="M14.333 10H17.6663C17.9316 10 18.1859 10.1054 18.3734 10.2929C18.561 10.4804 18.6663 10.7348 18.6663 11C18.6663 11.6188 18.4205 12.2123 17.9829 12.6499C17.5453 13.0875 16.9518 13.3333 16.333 13.3333H15.6663C15.0475 13.3333 14.454 13.0875 14.0164 12.6499C13.5788 12.2123 13.333 11.6188 13.333 11C13.333 10.7348 13.4384 10.4804 13.6259 10.2929C13.8134 10.1054 14.0678 10 14.333 10Z" stroke="white" stroke-linecap="round" stroke-linejoin="round"/>
<path d="M10.667 19.334V18.6673C10.667 17.2528 11.2289 15.8963 12.2291 14.8961C13.2293 13.8959 14.5858 13.334 16.0003 13.334C17.4148 13.334 18.7714 13.8959 19.7716 14.8961C20.7718 15.8963 21.3337 17.2528 21.3337 18.6673V19.334C21.3337 20.0412 21.0527 20.7195 20.5526 21.2196C20.0525 21.7197 19.3742 22.0007 18.667 22.0007H13.3337C12.6264 22.0007 11.9481 21.7197 11.448 21.2196C10.9479 20.7195 10.667 20.0412 10.667 19.334Z" stroke="white" stroke-linecap="round" stroke-linejoin="round"/>
</g>
<defs>
<clipPath id="clip0_9_5394">
<rect width="16" height="16" fill="white" transform="translate(8 8)"/>
</clipPath>
</defs>
</svg>
