<svg width="28" height="28" viewBox="0 0 28 28" fill="none" xmlns="http://www.w3.org/2000/svg">
<path d="M14.0319 0H13.9681C6.25375 0 0 6.25374 0 13.9681V14.0319C0 21.7463 6.25375 28 13.9681 28H14.0319C21.7463 28 28 21.7463 28 14.0319V13.9681C28 6.25374 21.7463 0 14.0319 0Z" fill="#007EBB"/>
<path d="M6.67777 9.3068C6.30892 8.96444 6.12549 8.54066 6.12549 8.03644C6.12549 7.53221 6.3099 7.08979 6.67777 6.74645C7.04661 6.40409 7.52141 6.23242 8.10313 6.23242C8.68484 6.23242 9.14101 6.40409 9.50887 6.74645C9.87772 7.08881 10.0611 7.51946 10.0611 8.03644C10.0611 8.55341 9.87674 8.96444 9.50887 9.3068C9.14002 9.64916 8.67209 9.82083 8.10313 9.82083C7.53416 9.82083 7.04661 9.64916 6.67777 9.3068ZM9.75117 11.2707V21.7672H6.43449V11.2707H9.75117Z" fill="#FEFFFC"/>
<path d="M20.7923 12.3061C21.5153 13.0909 21.8763 14.168 21.8763 15.5394V21.5802H18.7264V15.9651C18.7264 15.2735 18.5469 14.736 18.1889 14.3534C17.8308 13.9708 17.3482 13.7785 16.7439 13.7785C16.1396 13.7785 15.6569 13.9698 15.2989 14.3534C14.9408 14.736 14.7613 15.2735 14.7613 15.9651V21.5802H11.5928V11.2398H14.7613V12.6112C15.0821 12.154 15.5147 11.793 16.0582 11.5272C16.6016 11.2613 17.2128 11.1289 17.8926 11.1289C19.1031 11.1289 20.0703 11.5213 20.7923 12.3061Z" fill="#FEFFFC"/>
</svg>
