<svg width="30" height="30" viewBox="0 0 30 30" fill="none" xmlns="http://www.w3.org/2000/svg">
<g clip-path="url(#clip0_118_365)">
<path d="M10.333 11.6667C10.333 12.3739 10.614 13.0522 11.1141 13.5523C11.6142 14.0524 12.2924 14.3333 12.9997 14.3333C13.7069 14.3333 14.3852 14.0524 14.8853 13.5523C15.3854 13.0522 15.6663 12.3739 15.6663 11.6667C15.6663 10.9594 15.3854 10.2811 14.8853 9.78105C14.3852 9.28095 13.7069 9 12.9997 9C12.2924 9 11.6142 9.28095 11.1141 9.78105C10.614 10.2811 10.333 10.9594 10.333 11.6667Z" stroke="#111827" stroke-linecap="round" stroke-linejoin="round"/>
<path d="M9 21V19.6667C9 18.9594 9.28095 18.2811 9.78105 17.781C10.2811 17.281 10.9594 17 11.6667 17H14.3333C15.0406 17 15.7189 17.281 16.219 17.781C16.719 18.2811 17 18.9594 17 19.6667V21" stroke="#111827" stroke-linecap="round" stroke-linejoin="round"/>
<path d="M17.667 9.08594C18.2406 9.2328 18.749 9.5664 19.1121 10.0341C19.4752 10.5019 19.6722 11.0772 19.6722 11.6693C19.6722 12.2614 19.4752 12.8367 19.1121 13.3044C18.749 13.7721 18.2406 14.1057 17.667 14.2526" stroke="#111827" stroke-linecap="round" stroke-linejoin="round"/>
<path d="M21 20.9996V19.6663C20.9966 19.0777 20.7986 18.5068 20.4368 18.0425C20.0751 17.5783 19.5699 17.2467 19 17.0996" stroke="#111827" stroke-linecap="round" stroke-linejoin="round"/>
</g>
<defs>
<clipPath id="clip0_118_365">
<rect width="16" height="16" fill="white" transform="translate(7 7)"/>
</clipPath>
</defs>
</svg>
