<svg width="28" height="28" viewBox="0 0 28 28" fill="none" xmlns="http://www.w3.org/2000/svg">
<path d="M14.0319 0H13.9681C6.25374 0 0 6.25374 0 13.9681V14.0319C0 21.7463 6.25374 28 13.9681 28H14.0319C21.7463 28 28 21.7463 28 14.0319V13.9681C28 6.25374 21.7463 0 14.0319 0Z" fill="url(#paint0_linear_8_2217)"/>
<path d="M18.3329 5.70117H9.66894C7.27536 5.70117 5.32812 7.64841 5.32812 10.042V17.9683C5.32812 20.3619 7.27536 22.3091 9.66894 22.3091H18.3329C20.7265 22.3091 22.6737 20.3619 22.6737 17.9683V10.042C22.6737 7.64841 20.7265 5.70117 18.3329 5.70117ZM6.85943 10.042C6.85943 8.49303 8.11998 7.23248 9.66894 7.23248H18.3329C19.8819 7.23248 21.1424 8.49303 21.1424 10.042V17.9683C21.1424 19.5172 19.8819 20.7778 18.3329 20.7778H9.66894C8.11998 20.7778 6.85943 19.5172 6.85943 17.9683V10.042Z" fill="white"/>
<path d="M14.0011 18.0422C16.2269 18.0422 18.0388 16.2313 18.0388 14.0045C18.0388 11.7777 16.2279 9.9668 14.0011 9.9668C11.7743 9.9668 9.96338 11.7777 9.96338 14.0045C9.96338 16.2313 11.7743 18.0422 14.0011 18.0422ZM14.0011 11.4991C15.3833 11.4991 16.5075 12.6233 16.5075 14.0055C16.5075 15.3877 15.3833 16.5119 14.0011 16.5119C12.6189 16.5119 11.4947 15.3877 11.4947 14.0055C11.4947 12.6233 12.6189 11.4991 14.0011 11.4991Z" fill="white"/>
<path d="M18.4121 10.6172C19.0115 10.6172 19.5 10.1297 19.5 9.52931C19.5 8.92895 19.0125 8.44141 18.4121 8.44141C17.8118 8.44141 17.3242 8.92895 17.3242 9.52931C17.3242 10.1297 17.8118 10.6172 18.4121 10.6172Z" fill="white"/>
<defs>
<linearGradient id="paint0_linear_8_2217" x1="4.09067" y1="23.9093" x2="23.9093" y2="4.09165" gradientUnits="userSpaceOnUse">
<stop stop-color="#FAAD4F"/>
<stop offset="0.35" stop-color="#DD2A7B"/>
<stop offset="0.62" stop-color="#9537B0"/>
<stop offset="1" stop-color="#515BD4"/>
</linearGradient>
</defs>
</svg>
