<svg width="160" height="38" viewBox="0 0 160 38" fill="none" xmlns="http://www.w3.org/2000/svg">
<path d="M5.58681 0.0298554C5.58681 0.0191075 5.58442 0.00955373 5.58322 0C5.58322 0.0226901 5.58203 0.0453811 5.58203 0.0680712C5.58323 0.0549348 5.58681 0.0429918 5.58681 0.0298554Z" fill="url(#paint0_linear_4_561)"/>
<path d="M34.4591 20.7206C33.2218 20.465 32.4885 21.0801 32.227 22.2911C32.1398 22.6947 32.055 23.1008 31.9571 23.5021C31.3265 26.0841 30.0295 28.297 28.1318 30.1338C26.2246 31.979 23.3261 31.6983 21.7449 29.5833C20.4443 27.8432 20.6557 26.4041 22.5056 24.399C24.9766 21.7214 24.8858 17.7564 22.3002 15.3452C19.6525 12.8766 15.5634 13.0462 13.1211 15.7274C10.8257 18.2473 10.9475 22.0713 13.6203 24.6521C16.2142 27.1577 14.3559 30.4014 12.0725 31.1012C10.4423 31.6004 8.90769 31.3508 7.62744 30.0753C5.42759 27.8838 4.10554 25.2517 3.55856 22.2087C3.34598 21.0263 2.59479 20.5092 1.4459 20.6943C0.329259 20.8747 -0.0720141 21.6689 0.0103905 22.7365C0.0426358 23.1486 0.0963764 23.563 0.195501 23.963C1.37544 28.7413 3.93476 32.5439 8.14695 35.1725C15.7329 40.0952 26.5948 38.4245 31.7851 31.5371C34.0494 29.1151 35.2198 26.1701 35.8134 22.9718C36.0128 21.891 35.6557 20.9678 34.4591 20.7206Z" fill="url(#paint1_linear_4_561)"/>
<path d="M34.8594 15.9273C34.6647 15.827 34.5154 15.6407 34.4713 15.4079C34.1834 13.9127 33.6914 12.4629 33.0107 11.1003C32.3205 9.721 31.4451 8.44677 30.4073 7.31704C29.0949 5.88637 27.5484 4.70649 25.8096 3.80963C24.9904 3.38688 24.1341 3.03219 23.2623 2.75275C22.873 2.62616 22.6581 2.21057 22.7823 1.82006C22.9077 1.42956 23.3244 1.21579 23.7149 1.33999C24.6644 1.64452 25.597 2.03144 26.4891 2.49121C28.3831 3.46808 30.0694 4.75425 31.5 6.3139C32.631 7.54633 33.5851 8.93401 34.3363 10.4375C35.0779 11.9207 35.6129 13.4983 35.927 15.1272C36.0046 15.5297 35.7407 15.9178 35.3395 15.9954C35.1687 16.03 35.0015 16.0014 34.8594 15.9273Z" fill="url(#paint2_linear_4_561)"/>
<path d="M0.776381 16.6221C0.501712 16.48 0.33452 16.1743 0.383483 15.8519C0.676066 13.9172 1.28273 12.0483 2.18675 10.2964C2.93672 8.84182 3.87656 7.50072 4.98002 6.31009C6.39039 4.78866 8.04199 3.52995 9.89303 2.57099C11.4455 1.7649 13.1043 1.18929 14.8228 0.857298C15.2252 0.779673 15.6145 1.04359 15.6909 1.44485C15.7686 1.8473 15.5058 2.23542 15.1034 2.31305C13.5246 2.61757 12.002 3.14661 10.5761 3.88702C8.87794 4.76835 7.36248 5.92196 6.06914 7.318C5.05645 8.41071 4.19423 9.64075 3.50636 10.9759C2.67638 12.5833 2.11987 14.2982 1.85118 16.0728C1.79027 16.4776 1.4117 16.7559 1.00686 16.695C0.923269 16.683 0.845646 16.658 0.776381 16.6221Z" fill="url(#paint3_linear_4_561)"/>
<path d="M8.38881 14.3508C8.02458 14.1633 7.88247 13.7155 8.06996 13.3512C8.48316 12.5487 8.9907 11.7988 9.57587 11.1216C10.1455 10.4624 10.7916 9.86891 11.4986 9.3554C12.4133 8.69141 13.4212 8.16715 14.4925 7.79814C15.4514 7.46734 16.4498 7.26433 17.4601 7.19506C17.8685 7.1676 18.222 7.4757 18.2506 7.88412C18.2781 8.29254 17.97 8.64603 17.5616 8.67469C16.6815 8.7344 15.8121 8.91115 14.9773 9.19896C14.0434 9.52139 13.1669 9.97758 12.3703 10.5556C11.7565 11.001 11.194 11.5181 10.6996 12.0902C10.1909 12.6789 9.75022 13.3321 9.38957 14.0308C9.19969 14.3962 8.75305 14.5383 8.38881 14.3508Z" fill="url(#paint4_linear_4_561)"/>
<path d="M28.4033 21.0326C28.1238 20.8881 27.9566 20.5752 28.0128 20.2492C28.1393 19.5112 28.1811 18.7564 28.1358 18.0065C28.094 17.3031 27.9781 16.6021 27.7894 15.9226C27.621 15.3135 27.3941 14.7188 27.1135 14.1551C26.8317 13.5843 26.4937 13.0409 26.1104 12.537C25.6207 11.8957 25.0547 11.3153 24.4253 10.8113C23.3231 9.92999 22.0106 9.27795 20.6409 8.93402C20.2456 8.83609 20.0031 8.43125 20.1023 8.03358C20.2026 7.6359 20.605 7.39586 21.0027 7.49498C22.5779 7.89027 24.0838 8.63904 25.352 9.65174C26.0757 10.2309 26.7278 10.8985 27.2914 11.6365C27.7321 12.2145 28.1202 12.8403 28.4439 13.4947C28.7651 14.1432 29.0254 14.8263 29.2189 15.5249C29.4351 16.3047 29.57 17.1108 29.6166 17.9181C29.6667 18.7803 29.619 19.6485 29.4745 20.4976C29.4052 20.9013 29.0219 21.1723 28.6182 21.1043C28.5418 21.0923 28.4689 21.0673 28.4033 21.0326Z" fill="url(#paint5_linear_4_561)"/>
<path d="M24.9695 5.48646C23.6774 4.82009 22.3016 4.34957 20.8829 4.08923C19.6254 3.85874 18.3392 3.79426 17.059 3.89696C16.1108 3.97339 15.165 4.14297 14.249 4.39972C13.4334 4.62782 12.6332 4.92876 11.8701 5.293C11.0199 5.69784 10.2066 6.18627 9.45185 6.74397C8.67203 7.31958 7.94834 7.97521 7.29868 8.69293C6.94878 9.07986 6.61559 9.49067 6.30748 9.91461C5.8704 10.5165 5.47392 11.1602 5.13118 11.8266C4.51974 13.0124 4.07191 14.2711 3.80202 15.5668C3.65632 16.2643 3.56437 16.9772 3.52257 17.6913C3.52018 17.7331 3.51899 17.7749 3.5166 17.8167C3.53451 18.218 3.8665 18.5357 4.27134 18.5285C4.67021 18.5225 4.98907 18.2025 5.0022 17.8084C5.0022 17.7964 5.00579 17.7845 5.00579 17.7714C5.00579 17.769 5.00459 17.7666 5.00459 17.7642C5.04281 17.1265 5.12521 16.4912 5.25538 15.869C5.49781 14.7046 5.90025 13.5725 6.45079 12.5061C6.76009 11.9066 7.11597 11.3274 7.51006 10.7864C7.78712 10.4054 8.08687 10.0364 8.40095 9.68891C8.98492 9.04403 9.63576 8.45528 10.3368 7.93819C11.0151 7.43662 11.7471 6.99834 12.5126 6.63291C13.2005 6.30569 13.9206 6.03461 14.6539 5.8292C15.4791 5.59752 16.3293 5.44586 17.1832 5.37659C18.3344 5.28344 19.4904 5.34196 20.6202 5.54976C21.8956 5.78382 23.1316 6.20657 24.2948 6.80607C24.659 6.99356 25.1056 6.85145 25.2943 6.48722C25.477 6.12179 25.3337 5.67395 24.9695 5.48646Z" fill="url(#paint6_linear_4_561)"/>
<path d="M32.8146 16.6615C32.6713 15.5939 32.4109 14.5394 32.0383 13.5267C31.6956 12.594 31.2585 11.6924 30.7378 10.8493C30.2673 10.0874 29.7263 9.36726 29.128 8.70686C28.8534 8.40353 28.384 8.37965 28.0807 8.65431C27.7774 8.92898 27.7535 9.39831 28.0294 9.70164C28.5667 10.2952 29.0528 10.9436 29.4756 11.6279C29.9437 12.3874 30.3378 13.1983 30.6459 14.0378C30.9803 14.949 31.2155 15.8984 31.3445 16.8598C31.4173 17.3984 31.452 17.9417 31.4579 18.4839L31.4627 18.4851C31.4711 18.6833 31.5559 18.8601 31.6896 18.9879C31.6932 18.9914 31.698 18.9938 31.7016 18.9974C31.7314 19.0249 31.7637 19.0512 31.7971 19.0738C31.809 19.0822 31.8222 19.087 31.8341 19.0941C31.8628 19.1109 31.8903 19.1264 31.9201 19.1395C31.9428 19.1491 31.9679 19.1539 31.9918 19.161C32.0133 19.167 32.0348 19.1766 32.0574 19.1801C32.1052 19.1897 32.1542 19.1945 32.2055 19.1945C32.602 19.1921 32.9209 18.8804 32.94 18.4899C32.94 18.4648 32.9412 18.4409 32.94 18.4158C32.9328 17.8295 32.8922 17.2431 32.8146 16.6615Z" fill="url(#paint7_linear_4_561)"/>
<path d="M7.69702 19.1357C7.99797 19.0462 8.22009 18.7691 8.22606 18.4371C8.238 17.6883 8.33593 16.9396 8.51864 16.2099C8.68942 15.5268 8.93303 14.8593 9.24353 14.2251C9.52178 13.6579 9.85497 13.1157 10.2335 12.6117C10.6157 12.103 11.048 11.6301 11.5185 11.2073C12.118 10.6664 12.782 10.2006 13.4926 9.82205C14.7393 9.15926 16.1497 8.76158 17.5589 8.6756C17.9661 8.65291 18.279 8.29942 18.2539 7.88981C18.2288 7.48139 17.8777 7.16969 17.4681 7.19477C15.8475 7.2927 14.2282 7.75008 12.7963 8.51199C11.9783 8.94788 11.214 9.48289 10.5249 10.1051C9.98514 10.5923 9.48835 11.1345 9.04888 11.7197C8.61418 12.2977 8.23203 12.921 7.91318 13.5719C7.55611 14.2992 7.27666 15.0659 7.08081 15.8505C6.87182 16.6888 6.75837 17.5498 6.74523 18.412C6.73807 18.8217 7.06528 19.1584 7.4749 19.1656C7.55013 19.168 7.62537 19.1572 7.69702 19.1357Z" fill="url(#paint8_linear_4_561)"/>
<path d="M18.4407 23.7095V23.4551C19.8236 23.1805 20.8662 21.9612 20.8662 20.4971C20.8662 18.8311 19.5155 17.4805 17.8496 17.4805C16.1837 17.4805 14.833 18.8311 14.833 20.4971C14.833 21.96 15.8756 23.1805 17.2585 23.4551V23.7095C17.2585 23.8253 17.3516 23.9185 17.4674 23.9185H17.5224V25.3766H16.7676L17.3421 26.6592L17.0543 31.9663L17.9165 32.8787L18.762 31.8982L18.3894 26.6485L18.9316 25.3766H18.252V23.9161C18.3571 23.9065 18.4407 23.8182 18.4407 23.7095Z" fill="white"/>
<path d="M16.4882 19.2552C16.518 19.2194 16.5491 19.1847 16.5551 19.1346C16.5634 19.045 16.4762 18.9793 16.3903 19.0128C16.352 19.0271 16.3234 19.0546 16.2983 19.0856C15.7155 19.7998 15.5889 20.5832 15.9388 21.4382C15.9938 21.5744 16.0595 21.6174 16.1371 21.5863C16.2207 21.5529 16.2278 21.4812 16.1693 21.3355C15.8636 20.5796 15.9651 19.8845 16.4882 19.2552Z" fill="url(#paint9_linear_4_561)"/>
<path d="M17.6728 18.3329C17.4518 18.3628 17.2381 18.4177 17.0363 18.5109C16.9933 18.53 16.9515 18.5503 16.9252 18.5909C16.8977 18.6327 16.8941 18.6781 16.9192 18.7222C16.9431 18.7628 16.9801 18.7808 17.0351 18.7784C17.0518 18.7724 17.0769 18.7676 17.0996 18.7569C17.2954 18.6649 17.5008 18.61 17.7146 18.5789C17.7982 18.567 17.8591 18.5312 17.8531 18.4356C17.8471 18.3592 17.7767 18.3186 17.6728 18.3329Z" fill="url(#paint10_linear_4_561)"/>
<path d="M51.2812 28.2192C49.1938 28.2192 47.4275 27.6997 45.9825 26.6631C44.5375 25.6265 43.5368 24.3535 42.9814 22.8464L46.9833 21.6116C47.3415 22.4881 47.91 23.1927 48.7005 23.7361C49.4911 24.2795 50.4417 24.5517 51.5535 24.5517C52.3811 24.5517 53.0475 24.3905 53.5538 24.0573C54.0602 23.7242 54.3193 23.3289 54.3193 22.8715C54.3193 22.143 53.69 21.5746 52.4169 21.1673L47.8598 19.7594C46.625 19.376 45.6374 18.7717 44.8958 17.9561C44.1554 17.1404 43.7971 16.1779 43.809 15.0661C43.7971 13.596 44.4145 12.3492 45.6613 11.3234C46.9092 10.2988 48.4772 9.7793 50.3665 9.7793C52.2318 9.7793 53.887 10.2235 55.3189 11.1252C56.752 12.0268 57.7145 13.1255 58.1969 14.4224L54.3313 15.5581C53.973 14.9288 53.4416 14.4224 52.7382 14.0271C52.0348 13.6318 51.2562 13.4336 50.4035 13.4336C49.7001 13.4336 49.1317 13.5697 48.6994 13.8408C48.267 14.1131 48.0569 14.4582 48.0569 14.8786C48.0569 15.4841 48.4521 15.9032 49.2427 16.1385L53.7007 17.5584C55.2449 18.0397 56.4427 18.6452 57.2834 19.3736C58.1229 20.1021 58.5433 21.1518 58.5433 22.5228C58.5433 24.129 57.8769 25.4617 56.531 26.5365C55.1839 27.6113 53.4308 28.1416 51.2693 28.1416L51.2812 28.2192Z" fill="#3D3B3B"/>
<path d="M80.7771 15.9862C81.7038 16.9619 82.1731 18.358 82.1731 20.1732V27.7803H78.1343V21.0748C78.1343 19.2094 77.4548 18.2708 76.0838 18.2708C74.5898 18.2708 73.8363 19.3086 73.8243 21.3829V27.7803H69.7843V21.0748C69.7843 19.2094 69.1048 18.2708 67.7338 18.2708C66.2399 18.2708 65.4863 19.3086 65.4863 21.3829V27.7803H61.4355V14.8876H65.4863V16.1475C66.413 15.0727 67.5989 14.5293 69.0439 14.5293C70.748 14.5293 71.9948 15.0977 72.7854 16.2466C73.8602 15.0977 75.2801 14.5293 77.0344 14.5293C78.6036 14.5281 79.8504 15.0106 80.7771 15.9862Z" fill="#3D3B3B"/>
<path d="M91.1988 28.1398C89.4445 28.1398 87.9625 27.4853 86.7527 26.1884C85.543 24.8915 84.9375 23.2733 84.9375 21.3339C84.9375 19.3957 85.543 17.7776 86.7527 16.4806C87.9625 15.1837 89.4445 14.5293 91.1988 14.5293C92.731 14.5293 93.9658 15.0476 94.9164 16.0734V14.8876H98.9672V27.7815H94.9164V26.5957C93.9407 27.6203 92.7059 28.1398 91.2107 28.1398H91.1988ZM91.9272 24.5583C92.8289 24.5583 93.5705 24.2622 94.1509 23.6567C94.7313 23.0512 95.0274 22.2738 95.0274 21.322C95.0274 20.3714 94.7313 19.6047 94.1509 19.0124C93.5705 18.4201 92.8301 18.1227 91.9404 18.1227C91.0638 18.1227 90.3473 18.4189 89.7789 19.0124C89.2104 19.6047 88.9262 20.3702 88.9262 21.322C88.9262 22.2857 89.2104 23.0632 89.7789 23.6567C90.3473 24.249 91.0626 24.5464 91.9404 24.5464L91.9272 24.5583Z" fill="#3D3B3B"/>
<path d="M106.676 16.6271C107.059 15.9225 107.602 15.3923 108.294 15.046C108.985 14.6996 109.788 14.5886 110.714 14.6996V18.4913C109.331 18.256 108.319 18.4543 107.663 19.0836C107.009 19.7142 106.688 20.8248 106.688 22.4179V27.8026H102.637V14.911H106.688V16.6522L106.676 16.6271Z" fill="#3D3B3B"/>
<path d="M122.352 27.3623C121.29 27.7826 120.24 27.9916 119.19 27.9916C117.67 27.9916 116.535 27.5593 115.769 26.6947C115.004 25.8301 114.62 24.6454 114.62 23.1264V18.4212H112.62V14.8887H114.62V10.8379H118.671V14.8887H122.142V18.4212H118.671V23.1264C118.671 24.028 119.115 24.4723 120.005 24.4723C120.5 24.4723 120.956 24.3612 121.376 24.1391L122.352 27.3623Z" fill="#3D3B3B"/>
<path d="M140.36 10.0762V27.7864H136.16V20.6844H129.182V27.7864H124.983V10.0762H129.182V16.8808H136.16V10.0762H140.36Z" fill="url(#paint11_linear_4_561)"/>
<path d="M151.193 21.9694H148.155V27.7864H144.005V10.0762H152.86C154.725 10.0762 156.243 10.6804 157.405 11.8914C158.566 13.1023 159.146 14.4852 159.146 16.0544C159.146 17.2152 158.825 18.29 158.196 19.2657C157.565 20.2413 156.677 20.9698 155.528 21.4391L159.801 27.7876H154.973L151.193 21.9694ZM148.142 18.2888H152.539C153.267 18.2888 153.873 18.0667 154.342 17.6344C154.811 17.2021 155.045 16.6706 155.045 16.0413C155.045 15.437 154.823 14.9175 154.366 14.4852C153.909 14.0529 153.365 13.8308 152.724 13.8308H148.154L148.142 18.2888Z" fill="url(#paint12_linear_4_561)"/>
<defs>
<linearGradient id="paint0_linear_4_561" x1="4.21231" y1="0.0336415" x2="5.58634" y2="0.0336415" gradientUnits="userSpaceOnUse">
<stop stop-color="#2DA17C"/>
<stop offset="1" stop-color="#557ABC"/>
</linearGradient>
<linearGradient id="paint1_linear_4_561" x1="20.1665" y1="16.8277" x2="12.0675" y2="38.8205" gradientUnits="userSpaceOnUse">
<stop stop-color="#E12751"/>
<stop offset="1" stop-color="#F58229"/>
</linearGradient>
<linearGradient id="paint2_linear_4_561" x1="22.7457" y1="8.65787" x2="35.9405" y2="8.65787" gradientUnits="userSpaceOnUse">
<stop stop-color="#E12751"/>
<stop offset="1" stop-color="#F58229"/>
</linearGradient>
<linearGradient id="paint3_linear_4_561" x1="0.374574" y1="8.77433" x2="15.7039" y2="8.77433" gradientUnits="userSpaceOnUse">
<stop stop-color="#E12751"/>
<stop offset="1" stop-color="#F58229"/>
</linearGradient>
<linearGradient id="paint4_linear_4_561" x1="7.98714" y1="10.8137" x2="18.2516" y2="10.8137" gradientUnits="userSpaceOnUse">
<stop stop-color="#E12751"/>
<stop offset="1" stop-color="#F58229"/>
</linearGradient>
<linearGradient id="paint5_linear_4_561" x1="20.081" y1="14.2945" x2="29.6366" y2="14.2945" gradientUnits="userSpaceOnUse">
<stop stop-color="#E12751"/>
<stop offset="1" stop-color="#F58229"/>
</linearGradient>
<linearGradient id="paint6_linear_4_561" x1="3.51333" y1="11.1884" x2="25.3717" y2="11.1884" gradientUnits="userSpaceOnUse">
<stop stop-color="#E12751"/>
<stop offset="1" stop-color="#F58229"/>
</linearGradient>
<linearGradient id="paint7_linear_4_561" x1="27.8383" y1="13.8282" x2="32.9415" y2="13.8282" gradientUnits="userSpaceOnUse">
<stop stop-color="#E12751"/>
<stop offset="1" stop-color="#F58229"/>
</linearGradient>
<linearGradient id="paint8_linear_4_561" x1="17.1208" y1="14.0464" x2="7.72962" y2="12.2834" gradientUnits="userSpaceOnUse">
<stop stop-color="#E12751"/>
<stop offset="1" stop-color="#F58229"/>
</linearGradient>
<linearGradient id="paint9_linear_4_561" x1="16.8006" y1="17.6511" x2="15.4265" y2="23.0151" gradientUnits="userSpaceOnUse">
<stop stop-color="#E12751"/>
<stop offset="1" stop-color="#F58229"/>
</linearGradient>
<linearGradient id="paint10_linear_4_561" x1="18.9018" y1="17.1879" x2="15.4013" y2="20.3301" gradientUnits="userSpaceOnUse">
<stop stop-color="#E12751"/>
<stop offset="1" stop-color="#F58229"/>
</linearGradient>
<linearGradient id="paint11_linear_4_561" x1="139.702" y1="6.52527" x2="128.757" y2="25.8393" gradientUnits="userSpaceOnUse">
<stop stop-color="#E12751"/>
<stop offset="1" stop-color="#F58229"/>
</linearGradient>
<linearGradient id="paint12_linear_4_561" x1="159.573" y1="10.4758" x2="145.409" y2="26.088" gradientUnits="userSpaceOnUse">
<stop stop-color="#E12751"/>
<stop offset="1" stop-color="#F58229"/>
</linearGradient>
</defs>
</svg>
