<svg width="127" height="30" viewBox="0 0 127 30" fill="none" xmlns="http://www.w3.org/2000/svg">
<path d="M4.41002 0.023565C4.41002 0.0150816 4.40813 0.00754081 4.40719 0C4.40719 0.0179094 4.40625 0.0358195 4.40625 0.0537289C4.40719 0.0433603 4.41002 0.0339336 4.41002 0.023565Z" fill="url(#paint0_linear_9_5189)"/>
<path d="M27.1987 16.3531C26.2222 16.1513 25.6434 16.6368 25.4369 17.5926C25.3681 17.9113 25.3012 18.2318 25.2239 18.5485C24.7262 20.5865 23.7025 22.3332 22.2046 23.783C20.6992 25.2394 18.4114 25.0178 17.1634 23.3484C16.1368 21.975 16.3037 20.8391 17.7638 19.2564C19.7142 17.143 19.6425 14.0134 17.6017 12.1102C15.5118 10.1618 12.2842 10.2956 10.3565 12.4119C8.54478 14.4008 8.64092 17.4192 10.7506 19.4562C12.798 21.4339 11.3312 23.9941 9.52889 24.5465C8.24219 24.9405 7.03089 24.7435 6.02038 23.7368C4.28403 22.007 3.24052 19.9295 2.80879 17.5276C2.641 16.5944 2.04808 16.1862 1.14126 16.3323C0.259886 16.4747 -0.0568411 17.1015 0.00820127 17.9442C0.0336526 18.2695 0.0760704 18.5966 0.15431 18.9123C1.08564 22.6839 3.10573 25.6852 6.43043 27.76C12.4181 31.6456 20.9914 30.3268 25.0882 24.8906C26.8754 22.9789 27.7992 20.6543 28.2677 18.1299C28.4251 17.2769 28.1433 16.5482 27.1987 16.3531Z" fill="url(#paint1_linear_9_5189)"/>
<path d="M27.5144 12.573C27.3608 12.4938 27.2429 12.3468 27.2081 12.163C26.9809 10.9828 26.5925 9.8385 26.0553 8.763C25.5104 7.67429 24.8195 6.66853 24.0004 5.77683C22.9645 4.6476 21.7438 3.71631 20.3714 3.00841C19.7248 2.67473 19.0489 2.39478 18.3608 2.17421C18.0535 2.0743 17.8839 1.74627 17.9819 1.43804C18.0809 1.12981 18.4098 0.961085 18.7181 1.05912C19.4674 1.29948 20.2036 1.60488 20.9077 1.96778C22.4027 2.73883 23.7336 3.75401 24.8629 4.98505C25.7555 5.95781 26.5087 7.05312 27.1015 8.23985C27.6869 9.41056 28.1092 10.6557 28.3571 11.9414C28.4184 12.2591 28.21 12.5654 27.8933 12.6267C27.7585 12.6541 27.6266 12.6314 27.5144 12.573Z" fill="url(#paint2_linear_9_5189)"/>
<path d="M0.612711 13.118C0.395913 13.0059 0.263948 12.7646 0.302594 12.5101C0.533532 10.983 1.01237 9.50787 1.72592 8.12507C2.31788 6.97698 3.0597 5.91845 3.93067 4.97867C5.04388 3.7778 6.3475 2.78429 7.80853 2.02739C9.03391 1.39113 10.3432 0.936799 11.6996 0.674756C12.0172 0.613487 12.3245 0.8218 12.3849 1.13851C12.4461 1.45617 12.2388 1.76252 11.9211 1.82379C10.675 2.06415 9.47316 2.48172 8.3477 3.06613C7.00732 3.76177 5.81115 4.67232 4.79032 5.77423C3.99099 6.63671 3.31043 7.60759 2.7675 8.66141C2.11239 9.93015 1.67314 11.2837 1.46105 12.6844C1.41298 13.004 1.11417 13.2236 0.794632 13.1755C0.72865 13.1661 0.667382 13.1463 0.612711 13.118Z" fill="url(#paint3_linear_9_5189)"/>
<path d="M6.6216 11.3252C6.33411 11.1772 6.22194 10.8237 6.36993 10.5362C6.69607 9.9028 7.09667 9.31085 7.55855 8.7764C8.00817 8.25608 8.51812 7.78761 9.07614 7.38229C9.79817 6.8582 10.5937 6.4444 11.4392 6.15314C12.1961 5.89204 12.9842 5.7318 13.7816 5.67713C14.104 5.65545 14.383 5.89864 14.4056 6.221C14.4273 6.54337 14.1841 6.82238 13.8617 6.84501C13.167 6.89214 12.4808 7.03164 11.8219 7.25881C11.0848 7.51331 10.3929 7.87338 9.76423 8.3296C9.27974 8.68119 8.83577 9.08934 8.44553 9.54085C8.04399 10.0055 7.69617 10.5212 7.4115 11.0726C7.26163 11.361 6.90909 11.4732 6.6216 11.3252Z" fill="url(#paint4_linear_9_5189)"/>
<path d="M22.4182 16.6014C22.1976 16.4873 22.0656 16.2404 22.1099 15.983C22.2099 15.4005 22.2428 14.8048 22.207 14.2128C22.174 13.6576 22.0826 13.1043 21.9337 12.568C21.8008 12.0873 21.6217 11.6179 21.4002 11.173C21.1777 10.7224 20.9109 10.2935 20.6084 9.89572C20.2219 9.38955 19.7751 8.93144 19.2784 8.53367C18.4083 7.83803 17.3724 7.32337 16.2913 7.0519C15.9793 6.9746 15.7879 6.65506 15.8661 6.34118C15.9453 6.02729 16.263 5.83783 16.5769 5.91606C17.8202 6.22806 19.0088 6.81907 20.0098 7.6184C20.581 8.07556 21.0957 8.60248 21.5406 9.185C21.8884 9.64122 22.1948 10.1351 22.4502 10.6517C22.7038 11.1635 22.9093 11.7027 23.062 12.2541C23.2326 12.8696 23.3391 13.5059 23.3759 14.1431C23.4154 14.8236 23.3777 15.5089 23.2637 16.1791C23.209 16.4977 22.9064 16.7117 22.5878 16.6579C22.5275 16.6485 22.47 16.6287 22.4182 16.6014Z" fill="url(#paint5_linear_9_5189)"/>
<path d="M19.7083 4.32909C18.6884 3.80311 17.6025 3.43173 16.4827 3.22624C15.4901 3.04432 14.475 2.99342 13.4645 3.07448C12.7161 3.13481 11.9695 3.26866 11.2465 3.47132C10.6028 3.65136 9.97121 3.88889 9.36889 4.17639C8.69775 4.49593 8.05584 4.88145 7.46012 5.32164C6.8446 5.77598 6.27338 6.29347 5.76061 6.85997C5.48443 7.16537 5.22144 7.48963 4.97825 7.82425C4.63326 8.29932 4.32031 8.80738 4.04979 9.33335C3.56717 10.2694 3.2137 11.2629 3.00067 12.2856C2.88567 12.8361 2.81309 13.3988 2.7801 13.9625C2.77822 13.9955 2.77728 14.0285 2.77539 14.0614C2.78953 14.3782 3.05157 14.6289 3.37111 14.6232C3.68594 14.6185 3.93762 14.3659 3.94798 14.0548C3.94798 14.0454 3.95081 14.036 3.95081 14.0256C3.95081 14.0237 3.94987 14.0219 3.94987 14.02C3.98003 13.5166 4.04507 13.0152 4.14782 12.5241C4.33917 11.605 4.65682 10.7114 5.09136 9.86969C5.33549 9.39651 5.61639 8.93935 5.92745 8.51235C6.14613 8.21166 6.38273 7.9204 6.63063 7.6461C7.09156 7.13709 7.60528 6.67239 8.15859 6.26425C8.69398 5.86835 9.2718 5.52242 9.87601 5.23398C10.4189 4.97571 10.9873 4.76174 11.5661 4.59961C12.2174 4.41675 12.8886 4.29704 13.5625 4.24237C14.4712 4.16884 15.3836 4.21503 16.2753 4.37904C17.282 4.56379 18.2576 4.89747 19.1757 5.37066C19.4632 5.51865 19.8157 5.40648 19.9647 5.11899C20.1089 4.83055 19.9958 4.47707 19.7083 4.32909Z" fill="url(#paint6_linear_9_5189)"/>
<path d="M25.9006 13.1509C25.7875 12.3082 25.582 11.4759 25.2879 10.6766C25.0174 9.94042 24.6724 9.22876 24.2614 8.56328C23.89 7.9619 23.463 7.39351 22.9908 6.87225C22.774 6.63283 22.4035 6.61398 22.1641 6.83078C21.9247 7.04758 21.9058 7.41802 22.1236 7.65744C22.5477 8.12591 22.9314 8.63775 23.2651 9.17786C23.6346 9.77735 23.9456 10.4174 24.1888 11.08C24.4527 11.7992 24.6384 12.5486 24.7402 13.3074C24.7977 13.7325 24.8251 14.1614 24.8298 14.5893L24.8336 14.5903C24.8401 14.7467 24.9071 14.8862 25.0126 14.9871C25.0155 14.9899 25.0192 14.9918 25.0221 14.9946C25.0456 15.0163 25.0711 15.0371 25.0975 15.055C25.1069 15.0616 25.1173 15.0653 25.1267 15.071C25.1493 15.0842 25.171 15.0964 25.1946 15.1068C25.2125 15.1144 25.2323 15.1181 25.2511 15.1238C25.2681 15.1285 25.2851 15.136 25.303 15.1389C25.3407 15.1464 25.3793 15.1502 25.4199 15.1502C25.7328 15.1483 25.9845 14.9023 25.9995 14.594C25.9995 14.5742 26.0005 14.5554 25.9995 14.5356C25.9939 14.0728 25.9618 13.61 25.9006 13.1509Z" fill="url(#paint7_linear_9_5189)"/>
<path d="M6.07459 15.102C6.31212 15.0313 6.48744 14.8126 6.49216 14.5505C6.50158 13.9595 6.57888 13.3685 6.7231 12.7926C6.85789 12.2534 7.05018 11.7265 7.29525 11.226C7.51488 10.7783 7.77787 10.3503 8.07667 9.95253C8.3783 9.55099 8.71952 9.17772 9.09091 8.84404C9.5641 8.41704 10.0882 8.04942 10.649 7.75062C11.6331 7.22748 12.7463 6.91359 13.8586 6.84572C14.18 6.82781 14.427 6.5488 14.4072 6.22549C14.3874 5.90312 14.1103 5.6571 13.7869 5.6769C12.5078 5.75419 11.2297 6.11521 10.0995 6.71659C9.45381 7.06064 8.85055 7.48292 8.30666 7.97402C7.88061 8.3586 7.48849 8.78654 7.14161 9.24841C6.7985 9.70463 6.49687 10.1967 6.2452 10.7104C5.96336 11.2844 5.74279 11.8896 5.5882 12.5089C5.42325 13.1706 5.3337 13.8502 5.32333 14.5308C5.31768 14.8541 5.57595 15.1199 5.89926 15.1255C5.95865 15.1274 6.01803 15.1189 6.07459 15.102Z" fill="url(#paint8_linear_9_5189)"/>
<path d="M14.5556 18.7154V18.5147C15.6471 18.2979 16.47 17.3355 16.47 16.1798C16.47 14.8649 15.4039 13.7988 14.089 13.7988C12.7741 13.7988 11.708 14.8649 11.708 16.1798C11.708 17.3345 12.5309 18.2979 13.6224 18.5147V18.7154C13.6224 18.8069 13.696 18.8804 13.7874 18.8804H13.8307V20.0313H13.235L13.6884 21.0437L13.4612 25.2326L14.1418 25.9527L14.8092 25.1789L14.5151 21.0352L14.943 20.0313H14.4067V18.8785C14.4896 18.871 14.5556 18.8012 14.5556 18.7154Z" fill="white"/>
<path d="M13.0142 15.1964C13.0378 15.1681 13.0623 15.1408 13.067 15.1012C13.0736 15.0305 13.0048 14.9786 12.9369 15.005C12.9068 15.0164 12.8842 15.038 12.8644 15.0625C12.4044 15.6262 12.3045 16.2446 12.5806 16.9195C12.624 17.0269 12.6758 17.0609 12.7371 17.0363C12.8031 17.01 12.8088 16.9534 12.7626 16.8384C12.5213 16.2417 12.6014 15.6931 13.0142 15.1964Z" fill="url(#paint9_linear_9_5189)"/>
<path d="M13.9489 14.473C13.7745 14.4965 13.6058 14.5399 13.4465 14.6134C13.4126 14.6285 13.3796 14.6445 13.3589 14.6766C13.3372 14.7095 13.3343 14.7454 13.3541 14.7802C13.373 14.8123 13.4022 14.8264 13.4456 14.8245C13.4588 14.8198 13.4786 14.8161 13.4965 14.8076C13.6511 14.735 13.8132 14.6916 13.9819 14.6671C14.0479 14.6577 14.096 14.6294 14.0913 14.554C14.0865 14.4937 14.0309 14.4616 13.9489 14.473Z" fill="url(#paint10_linear_9_5189)"/>
<path d="M40.4769 22.2695C38.8292 22.2695 37.4351 21.8595 36.2945 21.0413C35.154 20.2232 34.3641 19.2183 33.9258 18.0288L37.0844 17.0541C37.3672 17.746 37.8159 18.3021 38.4399 18.731C39.0639 19.1599 39.8142 19.3748 40.6918 19.3748C41.345 19.3748 41.871 19.2476 42.2706 18.9846C42.6703 18.7216 42.8748 18.4096 42.8748 18.0486C42.8748 17.4736 42.3781 17.0249 41.3733 16.7035L37.7763 15.5922C36.8017 15.2896 36.0221 14.8126 35.4368 14.1688C34.8524 13.525 34.5696 12.7653 34.579 11.8877C34.5696 10.7274 35.0569 9.74332 36.041 8.93363C37.026 8.12487 38.2636 7.71484 39.7548 7.71484C41.2272 7.71484 42.5336 8.06549 43.6638 8.77715C44.7949 9.48882 45.5546 10.356 45.9355 11.3797L42.8843 12.2761C42.6015 11.7793 42.182 11.3797 41.6268 11.0677C41.0716 10.7557 40.4571 10.5992 39.784 10.5992C39.2289 10.5992 38.7802 10.7067 38.439 10.9206C38.0977 11.1355 37.9318 11.408 37.9318 11.7397C37.9318 12.2176 38.2438 12.5485 38.8678 12.7342L42.3866 13.8549C43.6054 14.2348 44.5508 14.7127 45.2144 15.2877C45.877 15.8627 46.2088 16.6912 46.2088 17.7733C46.2088 19.0411 45.6828 20.0931 44.6205 20.9414C43.5573 21.7898 42.1735 22.2083 40.4674 22.2083L40.4769 22.2695Z" fill="#3D3B3B"/>
<path d="M63.7576 12.6148C64.489 13.3849 64.8595 14.4868 64.8595 15.9196V21.9239H61.6716V16.6312C61.6716 15.1589 61.1353 14.418 60.0532 14.418C58.874 14.418 58.2792 15.2371 58.2698 16.8744V21.9239H55.0809V16.6312C55.0809 15.1589 54.5446 14.418 53.4625 14.418C52.2833 14.418 51.6885 15.2371 51.6885 16.8744V21.9239H48.4912V11.7476H51.6885V12.7421C52.42 11.8937 53.356 11.4648 54.4965 11.4648C55.8416 11.4648 56.8257 11.9135 57.4497 12.8203C58.298 11.9135 59.4188 11.4648 60.8035 11.4648C62.042 11.4639 63.0261 11.8447 63.7576 12.6148Z" fill="#3D3B3B"/>
<path d="M71.9841 22.2077C70.5994 22.2077 69.4296 21.6911 68.4747 20.6675C67.5199 19.6438 67.042 18.3666 67.042 16.8358C67.042 15.3059 67.5199 14.0287 68.4747 13.0051C69.4296 11.9814 70.5994 11.4648 71.9841 11.4648C73.1934 11.4648 74.1681 11.8739 74.9184 12.6836V11.7476H78.1157V21.9249H74.9184V20.9889C74.1483 21.7976 73.1736 22.2077 71.9935 22.2077H71.9841ZM72.559 19.3808C73.2707 19.3808 73.8561 19.147 74.3142 18.6691C74.7723 18.1912 75.006 17.5776 75.006 16.8264C75.006 16.076 74.7723 15.4709 74.3142 15.0034C73.8561 14.5358 73.2716 14.3011 72.5694 14.3011C71.8775 14.3011 71.312 14.5349 70.8633 15.0034C70.4146 15.4709 70.1903 16.0751 70.1903 16.8264C70.1903 17.587 70.4146 18.2007 70.8633 18.6691C71.312 19.1367 71.8766 19.3714 72.5694 19.3714L72.559 19.3808Z" fill="#3D3B3B"/>
<path d="M84.1996 13.1263C84.5022 12.5702 84.9311 12.1517 85.4768 11.8783C86.0226 11.605 86.656 11.5173 87.3875 11.605V14.5977C86.2959 14.412 85.4966 14.5685 84.9791 15.0653C84.4626 15.563 84.209 16.4396 84.209 17.697V21.9472H81.0117V11.7718H84.209V13.1461L84.1996 13.1263Z" fill="#3D3B3B"/>
<path d="M96.5729 21.5975C95.7349 21.9293 94.9063 22.0942 94.0769 22.0942C92.8779 22.0942 91.9814 21.753 91.3772 21.0705C90.773 20.3881 90.4705 19.453 90.4705 18.254V14.5402H88.8916V11.752H90.4705V8.55469H93.6678V11.752H96.407V14.5402H93.6678V18.254C93.6678 18.9657 94.0184 19.3164 94.7207 19.3164C95.1109 19.3164 95.471 19.2287 95.8028 19.0534L96.5729 21.5975Z" fill="#3D3B3B"/>
<path d="M110.787 7.94922V21.928H107.472V16.3223H101.965V21.928H98.6504V7.94922H101.965V13.3202H107.472V7.94922H110.787Z" fill="url(#paint11_linear_9_5189)"/>
<path d="M119.338 17.3366H116.94V21.928H113.664V7.94922H120.653C122.126 7.94922 123.324 8.42617 124.241 9.38197C125.157 10.3378 125.615 11.4293 125.615 12.6679C125.615 13.5841 125.362 14.4324 124.865 15.2025C124.367 15.9726 123.666 16.5476 122.759 16.9181L126.132 21.9289H122.321L119.338 17.3366ZM116.929 14.4315H120.4C120.975 14.4315 121.453 14.2562 121.823 13.9149C122.194 13.5737 122.378 13.1543 122.378 12.6575C122.378 12.1806 122.203 11.7705 121.842 11.4293C121.481 11.0881 121.052 10.9128 120.546 10.9128H116.939L116.929 14.4315Z" fill="url(#paint12_linear_9_5189)"/>
<defs>
<linearGradient id="paint0_linear_9_5189" x1="3.32512" y1="0.0265534" x2="4.40965" y2="0.0265534" gradientUnits="userSpaceOnUse">
<stop stop-color="#2DA17C"/>
<stop offset="1" stop-color="#557ABC"/>
</linearGradient>
<linearGradient id="paint1_linear_9_5189" x1="15.9175" y1="13.2804" x2="9.52498" y2="30.6394" gradientUnits="userSpaceOnUse">
<stop stop-color="#E12751"/>
<stop offset="1" stop-color="#F58229"/>
</linearGradient>
<linearGradient id="paint2_linear_9_5189" x1="17.953" y1="6.83516" x2="28.3677" y2="6.83516" gradientUnits="userSpaceOnUse">
<stop stop-color="#E12751"/>
<stop offset="1" stop-color="#F58229"/>
</linearGradient>
<linearGradient id="paint3_linear_9_5189" x1="0.295563" y1="6.92371" x2="12.3951" y2="6.92371" gradientUnits="userSpaceOnUse">
<stop stop-color="#E12751"/>
<stop offset="1" stop-color="#F58229"/>
</linearGradient>
<linearGradient id="paint4_linear_9_5189" x1="6.30456" y1="8.53334" x2="14.4064" y2="8.53334" gradientUnits="userSpaceOnUse">
<stop stop-color="#E12751"/>
<stop offset="1" stop-color="#F58229"/>
</linearGradient>
<linearGradient id="paint5_linear_9_5189" x1="15.8494" y1="11.283" x2="23.3916" y2="11.283" gradientUnits="userSpaceOnUse">
<stop stop-color="#E12751"/>
<stop offset="1" stop-color="#F58229"/>
</linearGradient>
<linearGradient id="paint6_linear_9_5189" x1="2.77281" y1="8.82963" x2="20.0257" y2="8.82963" gradientUnits="userSpaceOnUse">
<stop stop-color="#E12751"/>
<stop offset="1" stop-color="#F58229"/>
</linearGradient>
<linearGradient id="paint7_linear_9_5189" x1="21.9728" y1="10.9145" x2="26.0008" y2="10.9145" gradientUnits="userSpaceOnUse">
<stop stop-color="#E12751"/>
<stop offset="1" stop-color="#F58229"/>
</linearGradient>
<linearGradient id="paint8_linear_9_5189" x1="13.5129" y1="11.0849" x2="6.10031" y2="9.69334" gradientUnits="userSpaceOnUse">
<stop stop-color="#E12751"/>
<stop offset="1" stop-color="#F58229"/>
</linearGradient>
<linearGradient id="paint9_linear_9_5189" x1="13.2608" y1="13.9303" x2="12.1763" y2="18.1641" gradientUnits="userSpaceOnUse">
<stop stop-color="#E12751"/>
<stop offset="1" stop-color="#F58229"/>
</linearGradient>
<linearGradient id="paint10_linear_9_5189" x1="14.919" y1="13.5692" x2="12.156" y2="16.0493" gradientUnits="userSpaceOnUse">
<stop stop-color="#E12751"/>
<stop offset="1" stop-color="#F58229"/>
</linearGradient>
<linearGradient id="paint11_linear_9_5189" x1="110.268" y1="5.14647" x2="101.629" y2="20.3911" gradientUnits="userSpaceOnUse">
<stop stop-color="#E12751"/>
<stop offset="1" stop-color="#F58229"/>
</linearGradient>
<linearGradient id="paint12_linear_9_5189" x1="125.952" y1="8.26465" x2="114.772" y2="20.5874" gradientUnits="userSpaceOnUse">
<stop stop-color="#E12751"/>
<stop offset="1" stop-color="#F58229"/>
</linearGradient>
</defs>
</svg>
