<svg width="16" height="16" viewBox="0 0 16 16" fill="none" xmlns="http://www.w3.org/2000/svg">
<g clip-path="url(#clip0_201_941)">
<path d="M8 11.9993H3.33333C2.97971 11.9993 2.64057 11.8589 2.39052 11.6088C2.14048 11.3588 2 11.0196 2 10.666V3.99935C2 3.64573 2.14048 3.30659 2.39052 3.05654C2.64057 2.80649 2.97971 2.66602 3.33333 2.66602H12.6667C13.0203 2.66602 13.3594 2.80649 13.6095 3.05654C13.8595 3.30659 14 3.64573 14 3.99935V8.99935" stroke="#6B7280" stroke-linecap="round" stroke-linejoin="round"/>
<path d="M2 4L8 8L14 4" stroke="#6B7280" stroke-linecap="round" stroke-linejoin="round"/>
<path d="M10 12H14" stroke="#6B7280" stroke-linecap="round" stroke-linejoin="round"/>
<path d="M12 10L14 12L12 14" stroke="#6B7280" stroke-linecap="round" stroke-linejoin="round"/>
</g>
<defs>
<clipPath id="clip0_201_941">
<rect width="16" height="16" fill="white"/>
</clipPath>
</defs>
</svg>
