<svg width="16" height="16" viewBox="0 0 16 16" fill="none" xmlns="http://www.w3.org/2000/svg">
<g clip-path="url(#clip0_8_2151)">
<path d="M6 7.33398C6 7.86442 6.21071 8.37313 6.58579 8.7482C6.96086 9.12327 7.46957 9.33398 8 9.33398C8.53043 9.33398 9.03914 9.12327 9.41421 8.7482C9.78929 8.37313 10 7.86442 10 7.33398C10 6.80355 9.78929 6.29484 9.41421 5.91977C9.03914 5.5447 8.53043 5.33398 8 5.33398C7.46957 5.33398 6.96086 5.5447 6.58579 5.91977C6.21071 6.29484 6 6.80355 6 7.33398Z" stroke="#6B7280" stroke-linecap="round" stroke-linejoin="round"/>
<path d="M7.91336 14.321C7.59068 14.3005 7.28656 14.163 7.05802 13.9343L4.22869 11.1056C3.56459 10.4412 3.08777 9.6132 2.84645 8.70533C2.60514 7.79745 2.6079 6.84195 2.85446 5.93549C3.10101 5.02902 3.58261 4.20377 4.25054 3.5432C4.91846 2.88264 5.74901 2.41022 6.65815 2.17373C7.56729 1.93723 8.52277 1.94507 9.42791 2.19643C10.333 2.44779 11.1557 2.93377 11.8127 3.60519C12.4698 4.27661 12.9378 5.10966 13.1694 6.02004C13.4011 6.93042 13.3882 7.88584 13.132 8.78963" stroke="#6B7280" stroke-linecap="round" stroke-linejoin="round"/>
<path d="M10 12.6673L11.3333 14.0007L14 11.334" stroke="#6B7280" stroke-linecap="round" stroke-linejoin="round"/>
</g>
<defs>
<clipPath id="clip0_8_2151">
<rect width="16" height="16" fill="white"/>
</clipPath>
</defs>
</svg>
