<svg width="30" height="30" viewBox="0 0 30 30" fill="none" xmlns="http://www.w3.org/2000/svg">
<g clip-path="url(#clip0_9_7631)">
<path d="M13.667 10.3333C13.667 9.97971 13.8075 9.64057 14.0575 9.39052C14.3076 9.14048 14.6467 9 15.0003 9C15.3539 9 15.6931 9.14048 15.9431 9.39052C16.1932 9.64057 16.3337 9.97971 16.3337 10.3333C17.0993 10.6954 17.7519 11.2589 18.2217 11.9635C18.6915 12.6682 18.9606 13.4874 19.0003 14.3333V16.3333C19.0505 16.7478 19.1973 17.1447 19.4289 17.4921C19.6605 17.8395 19.9704 18.1276 20.3337 18.3333H9.66699C10.0303 18.1276 10.3402 17.8395 10.5718 17.4921C10.8034 17.1447 10.9502 16.7478 11.0003 16.3333V14.3333C11.04 13.4874 11.3092 12.6682 11.779 11.9635C12.2487 11.2589 12.9014 10.6954 13.667 10.3333Z" stroke="#6B7280" stroke-linecap="round" stroke-linejoin="round"/>
<path d="M13 18.334V19.0007C13 19.5311 13.2107 20.0398 13.5858 20.4149C13.9609 20.7899 14.4696 21.0007 15 21.0007C15.5304 21.0007 16.0391 20.7899 16.4142 20.4149C16.7893 20.0398 17 19.5311 17 19.0007V18.334" stroke="#6B7280" stroke-linecap="round" stroke-linejoin="round"/>
</g>
<rect x="15" y="3" width="9" height="9" rx="4.5" fill="#F6CECE"/>
<path d="M22 7.5C22 8.88071 20.8807 10 19.5 10C18.1193 10 17 8.88071 17 7.5C17 6.11929 18.1193 5 19.5 5C20.8807 5 22 6.11929 22 7.5Z" fill="#E70D0D"/>
<defs>
<clipPath id="clip0_9_7631">
<rect width="16" height="16" fill="white" transform="translate(7 7)"/>
</clipPath>
</defs>
</svg>
