<svg width="28" height="28" viewBox="0 0 28 28" fill="none" xmlns="http://www.w3.org/2000/svg">
<path d="M14.0319 0H13.9681C6.25374 0 0 6.25374 0 13.9681V14.0319C0 21.7463 6.25374 28 13.9681 28H14.0319C21.7463 28 28 21.7463 28 14.0319V13.9681C28 6.25374 21.7463 0 14.0319 0Z" fill="#FF0000"/>
<path fill-rule="evenodd" clip-rule="evenodd" d="M12.7221 17.8285C12.7054 17.8864 12.6897 17.9354 12.677 17.9845C11.9363 20.8862 11.8539 21.5307 11.0927 22.8786C10.7297 23.5192 10.3207 24.1264 9.86845 24.7071C9.81744 24.7728 9.76936 24.8572 9.66734 24.8366C9.55551 24.8131 9.54668 24.712 9.53491 24.6227C9.41327 23.7408 9.34558 22.857 9.37501 21.9663C9.41327 20.8067 9.5565 20.4085 11.0515 14.1224C11.0731 14.0262 11.0486 13.9468 11.0172 13.8605C10.6591 12.8952 10.5885 11.9152 10.9014 10.9224C11.5783 8.77802 14.0091 8.6142 14.4339 10.3829C14.6958 11.4767 14.0033 12.9089 13.4716 15.0259C13.0311 16.772 15.0872 18.0139 16.8442 16.7386C18.4647 15.5634 19.0935 12.7461 18.9739 10.7488C18.7384 6.76702 14.3721 5.90671 11.6028 7.18884C8.42739 8.65736 7.70539 12.593 9.13958 14.3921C9.32106 14.6207 9.66342 14.761 9.60358 14.9925C9.51137 15.3525 9.42994 15.7155 9.32989 16.0735C9.25533 16.3404 8.83057 16.4375 8.5608 16.3276C8.03206 16.1138 7.5916 15.7773 7.23452 15.3339C6.01713 13.8261 5.66889 10.844 7.27867 8.31892C9.06208 5.52216 12.3797 4.39012 15.409 4.73346C19.0268 5.14449 21.3135 7.61655 21.7412 10.4212C21.9364 11.6984 21.7961 14.8483 20.0029 17.0751C17.9399 19.6335 14.5958 19.8032 13.0527 18.2327C12.934 18.112 12.8388 17.9717 12.7221 17.8275V17.8285Z" fill="white"/>
</svg>
