<svg width="14" height="14" viewBox="0 0 14 14" fill="none" xmlns="http://www.w3.org/2000/svg">
<g clip-path="url(#clip0_8_2257)">
<path d="M2.91667 2.33398H5.25L6.41667 5.25065L4.95833 6.12565C5.58306 7.39238 6.60827 8.41759 7.875 9.04232L8.75 7.58398L11.6667 8.75065V11.084C11.6667 11.3934 11.5438 11.6902 11.325 11.9089C11.1062 12.1277 10.8094 12.2507 10.5 12.2507C8.22457 12.1124 6.07842 11.1461 4.46648 9.53417C2.85454 7.92223 1.88828 5.77608 1.75 3.50065C1.75 3.19123 1.87292 2.89449 2.09171 2.67569C2.3105 2.4569 2.60725 2.33398 2.91667 2.33398Z" stroke="#111827" stroke-linecap="round" stroke-linejoin="round"/>
<path d="M8.75 4.08398C9.05942 4.08398 9.35617 4.2069 9.57496 4.42569C9.79375 4.64449 9.91667 4.94123 9.91667 5.25065" stroke="#111827" stroke-linecap="round" stroke-linejoin="round"/>
<path d="M8.75 1.75C9.67826 1.75 10.5685 2.11875 11.2249 2.77513C11.8813 3.4315 12.25 4.32174 12.25 5.25" stroke="#111827" stroke-linecap="round" stroke-linejoin="round"/>
</g>
<defs>
<clipPath id="clip0_8_2257">
<rect width="14" height="14" fill="white"/>
</clipPath>
</defs>
</svg>
