<svg width="14" height="14" viewBox="0 0 14 14" fill="none" xmlns="http://www.w3.org/2000/svg">
<g clip-path="url(#clip0_41_334)">
<path d="M4.66699 4.08333C4.66699 4.70217 4.91282 5.29566 5.35041 5.73325C5.78799 6.17083 6.38149 6.41667 7.00033 6.41667C7.61916 6.41667 8.21266 6.17083 8.65024 5.73325C9.08783 5.29566 9.33366 4.70217 9.33366 4.08333C9.33366 3.46449 9.08783 2.871 8.65024 2.43342C8.21266 1.99583 7.61916 1.75 7.00033 1.75C6.38149 1.75 5.78799 1.99583 5.35041 2.43342C4.91282 2.871 4.66699 3.46449 4.66699 4.08333Z" stroke="#6B7280" stroke-linecap="round" stroke-linejoin="round"/>
<path d="M3.5 12.25V11.0833C3.5 10.4645 3.74583 9.871 4.18342 9.43342C4.621 8.99583 5.21449 8.75 5.83333 8.75H6.125" stroke="#6B7280" stroke-linecap="round" stroke-linejoin="round"/>
<path d="M10.383 12.1429L9.11598 12.8067C9.07838 12.8263 9.03609 12.835 8.99381 12.8319C8.95154 12.8289 8.91095 12.8141 8.87658 12.7893C8.84221 12.7645 8.81541 12.7306 8.79918 12.6914C8.78295 12.6523 8.77792 12.6094 8.78465 12.5675L9.02673 11.1611L8.00182 10.1654C7.97123 10.1358 7.94956 10.0982 7.93931 10.0569C7.92905 10.0156 7.93061 9.97228 7.94381 9.93183C7.95701 9.89138 7.98132 9.85546 8.01396 9.82816C8.0466 9.80086 8.08625 9.78329 8.1284 9.77745L9.54473 9.57212L10.1782 8.29287C10.1972 8.25477 10.2264 8.22271 10.2626 8.2003C10.2987 8.17789 10.3404 8.16602 10.383 8.16602C10.4255 8.16602 10.4672 8.17789 10.5034 8.2003C10.5396 8.22271 10.5688 8.25477 10.5877 8.29287L11.2212 9.57212L12.6376 9.77745C12.6796 9.7835 12.7191 9.80118 12.7516 9.8285C12.7841 9.85583 12.8083 9.8917 12.8215 9.93206C12.8346 9.97242 12.8362 10.0157 12.8261 10.0569C12.816 10.0981 12.7945 10.1357 12.7642 10.1654L11.7392 11.1611L11.9807 12.567C11.988 12.6089 11.9833 12.652 11.9673 12.6914C11.9513 12.7308 11.9245 12.7649 11.8901 12.7899C11.8556 12.8149 11.8149 12.8297 11.7724 12.8327C11.73 12.8356 11.6876 12.8266 11.65 12.8067L10.383 12.1429Z" stroke="#6B7280" stroke-linecap="round" stroke-linejoin="round"/>
</g>
<defs>
<clipPath id="clip0_41_334">
<rect width="14" height="14" fill="white"/>
</clipPath>
</defs>
</svg>
