<svg width="14" height="14" viewBox="0 0 14 14" fill="none" xmlns="http://www.w3.org/2000/svg">
<g clip-path="url(#clip0_9_4501)">
<path d="M4.66699 4.08333C4.66699 4.70217 4.91282 5.29566 5.35041 5.73325C5.78799 6.17083 6.38149 6.41667 7.00033 6.41667C7.61916 6.41667 8.21266 6.17083 8.65024 5.73325C9.08783 5.29566 9.33366 4.70217 9.33366 4.08333C9.33366 3.46449 9.08783 2.871 8.65024 2.43342C8.21266 1.99583 7.61916 1.75 7.00033 1.75C6.38149 1.75 5.78799 1.99583 5.35041 2.43342C4.91282 2.871 4.66699 3.46449 4.66699 4.08333Z" stroke="#374151" stroke-linecap="round" stroke-linejoin="round"/>
<path d="M3.5 12.25V11.0833C3.5 10.4645 3.74583 9.871 4.18342 9.43342C4.621 8.99583 5.21449 8.75 5.83333 8.75H8.16667C8.7855 8.75 9.379 8.99583 9.81658 9.43342C10.2542 9.871 10.5 10.4645 10.5 11.0833V12.25" stroke="#374151" stroke-linecap="round" stroke-linejoin="round"/>
</g>
<defs>
<clipPath id="clip0_9_4501">
<rect width="14" height="14" fill="white"/>
</clipPath>
</defs>
</svg>
