<svg width="28" height="28" viewBox="0 0 28 28" fill="none" xmlns="http://www.w3.org/2000/svg">
<path d="M14.0319 0H13.9681C6.25374 0 0 6.25374 0 13.9681V14.0319C0 21.7463 6.25374 28 13.9681 28H14.0319C21.7463 28 28 21.7463 28 14.0319V13.9681C28 6.25374 21.7463 0 14.0319 0Z" fill="#00E510"/>
<path d="M16.7285 18.0943C13.145 18.0943 10.2295 15.1778 10.2285 11.5943C10.2295 10.6859 10.9692 9.94727 11.8756 9.94727C11.9688 9.94727 12.061 9.95511 12.1493 9.97081C12.3435 10.0032 12.5279 10.0689 12.6976 10.168C12.7222 10.1827 12.7388 10.2062 12.7428 10.2337L13.1214 12.6204C13.1263 12.6489 13.1175 12.6763 13.0989 12.6969C12.8899 12.9285 12.6231 13.0952 12.3258 13.1786L12.1826 13.2188L12.2366 13.3571C12.7251 14.601 13.7198 15.5947 14.9647 16.0852L15.103 16.1402L15.1432 15.9969C15.2266 15.6997 15.3934 15.4329 15.6249 15.2239C15.6415 15.2082 15.6641 15.2004 15.6867 15.2004C15.6916 15.2004 15.6965 15.2004 15.7024 15.2014L18.0891 15.58C18.1175 15.5849 18.1411 15.6006 18.1558 15.6252C18.2539 15.7949 18.3196 15.9803 18.353 16.1745C18.3687 16.2608 18.3755 16.3521 18.3755 16.4472C18.3755 17.3546 17.6368 18.0933 16.7285 18.0943Z" fill="#FDFDFD"/>
<path d="M23.0829 13.2139C22.8896 11.0302 21.889 9.00451 20.2655 7.51049C18.6322 6.00763 16.5133 5.17969 14.2973 5.17969C9.43358 5.17969 5.47633 9.13694 5.47633 14.0006C5.47633 15.633 5.92659 17.2231 6.77906 18.6083L4.87793 22.8167L10.9649 22.1682C12.0234 22.6018 13.1436 22.8216 14.2963 22.8216C14.5994 22.8216 14.9104 22.8059 15.2223 22.7735C15.497 22.7441 15.7746 22.7009 16.0473 22.646C20.1203 21.8229 23.0937 18.208 23.1172 14.0477V14.0006C23.1172 13.7358 23.1054 13.4709 23.0819 13.2139H23.0829ZM11.1993 20.3211L7.83166 20.6801L8.83716 18.4523L8.63605 18.1825C8.62134 18.1629 8.60663 18.1433 8.58995 18.1207C7.71688 16.9151 7.25581 15.4907 7.25581 14.0016C7.25581 10.1189 10.4146 6.96016 14.2973 6.96016C17.9347 6.96016 21.0179 9.79812 21.3152 13.4209C21.3309 13.6151 21.3397 13.8103 21.3397 14.0026C21.3397 14.0575 21.3387 14.1115 21.3377 14.1694C21.2632 17.4174 18.9942 20.1759 15.8197 20.8782C15.5774 20.9322 15.3292 20.9734 15.082 20.9999C14.825 21.0293 14.5611 21.044 14.2992 21.044C13.3663 21.044 12.4599 20.8635 11.6035 20.5065C11.5084 20.4682 11.4152 20.427 11.3278 20.3848L11.2003 20.323L11.1993 20.3211Z" fill="#FDFDFD"/>
</svg>
