<svg width="28" height="28" viewBox="0 0 28 28" fill="none" xmlns="http://www.w3.org/2000/svg">
<path d="M27.998 14.0005C27.998 21.0714 22.7569 26.917 15.9481 27.8656C15.3115 27.9539 14.6602 28 13.999 28C13.2358 28 12.4864 27.9392 11.7566 27.8215C5.09109 26.7483 0 20.9684 0 14.0005C0 6.26844 6.26822 0 14 0C21.7318 0 28 6.26844 28 14.0005H27.998Z" fill="#1C1C1B"/>
<path d="M5.67841 6.17383L12.135 14.8064L5.63818 21.8253H7.10077L12.7893 15.6805L17.385 21.8253H22.3613L15.5418 12.7071L21.5893 6.17383H20.1267L14.8885 11.8331L10.6557 6.17383H5.67938H5.67841ZM7.82862 7.25094H10.1142L20.2091 20.7482H17.9235L7.82862 7.25094Z" fill="white"/>
</svg>
